<mxfile host="app.diagrams.net" modified="2023-05-28T01:21:37.514Z" agent="Mozilla/5.0 (Windows NT 10.0; Win64; x64) AppleWebKit/537.36 (KHTML, like Gecko) Chrome/113.0.0.0 Safari/537.36" etag="wjUqsRrf5LbDkGjnXu5_" version="21.3.4" type="github">
  <diagram id="R2lEEEUBdFMjLlhIrx00" name="Page-1">
    <mxGraphModel dx="1185" dy="656" grid="1" gridSize="10" guides="1" tooltips="1" connect="1" arrows="1" fold="1" page="1" pageScale="1" pageWidth="850" pageHeight="1100" math="0" shadow="0" extFonts="Permanent Marker^https://fonts.googleapis.com/css?family=Permanent+Marker">
      <root>
        <mxCell id="0" />
        <mxCell id="1" parent="0" />
        <mxCell id="-TJM4q__RIzKJfzwJ7_V-6" value="" style="group" vertex="1" connectable="0" parent="1">
          <mxGeometry x="400" y="460" width="40" height="40" as="geometry" />
        </mxCell>
        <mxCell id="-TJM4q__RIzKJfzwJ7_V-1" value="" style="shape=image;verticalLabelPosition=bottom;labelBackgroundColor=default;verticalAlign=top;aspect=fixed;imageAspect=0;image=data:image/svg+xml,PHN2ZyB4bWxuczp4bGluaz0iaHR0cDovL3d3dy53My5vcmcvMTk5OS94bGluayIgeG1sbnM9Imh0dHA6Ly93d3cudzMub3JnLzIwMDAvc3ZnIiBoZWlnaHQ9IjIwMCIgd2lkdGg9IjIwMCIgdmVyc2lvbj0iMS4xIiB2aWV3Qm94PSIwIDAgMTAyNCAxMDI0IiBjbGFzcz0iaWNvbiI+PHBhdGggZmlsbD0iIzJjMmMyYyIgZD0iTTgzMiAyMDB2NjI0YzAgNC40LTMuNiA4LTggOEgyMDBjLTQuNCAwLTgtMy42LTgtOFYyMDBjMC00LjQgMy42LTggOC04aDYyNGM0LjQgMCA4IDMuNiA4IDh6IG0tNzA0LTh2NjQwYzAgMzUuMyAyOC43IDY0IDY0IDY0aDY0MGMzNS4zIDAgNjQtMjguNyA2NC02NFYxOTJjMC0zNS4zLTI4LjctNjQtNjQtNjRIMTkyYy0zNS4zIDAtNjQgMjguNy02NCA2NHpNMjI0IDBoLTYwYy0yLjIgMC00IDEuOC00IDR2ODhjMCAyLjIgMS44IDQgNCA0aDU2YzIuMiAwIDQtMS44IDQtNFYwek0zNTIgMGgtNjBjLTIuMiAwLTQgMS44LTQgNHY4OGMwIDIuMiAxLjggNCA0IDRoNTZjMi4yIDAgNC0xLjggNC00VjB6TTQ4MCAwaC02MGMtMi4yIDAtNCAxLjgtNCA0djg4YzAgMi4yIDEuOCA0IDQgNGg1NmMyLjIgMCA0LTEuOCA0LTRWMHpNNjA4IDBoLTYwYy0yLjIgMC00IDEuOC00IDR2ODhjMCAyLjIgMS44IDQgNCA0aDU2YzIuMiAwIDQtMS44IDQtNFYwek03MzYgMGgtNjBjLTIuMiAwLTQgMS44LTQgNHY4OGMwIDIuMiAxLjggNCA0IDRoNTZjMi4yIDAgNC0xLjggNC00VjB6TTg2NCAwaC02MGMtMi4yIDAtNCAxLjgtNCA0djg4YzAgMi4yIDEuOCA0IDQgNGg1NmMyLjIgMCA0LTEuOCA0LTRWMHpNMjI0IDkyOGgtNjBjLTIuMiAwLTQgMS44LTQgNHY4OGMwIDIuMiAxLjggNCA0IDRoNTZjMi4yIDAgNC0xLjggNC00di05MnpNMzUyIDkyOGgtNjBjLTIuMiAwLTQgMS44LTQgNHY4OGMwIDIuMiAxLjggNCA0IDRoNTZjMi4yIDAgNC0xLjggNC00di05MnpNNDgwIDkyOGgtNjBjLTIuMiAwLTQgMS44LTQgNHY4OGMwIDIuMiAxLjggNCA0IDRoNTZjMi4yIDAgNC0xLjggNC00di05MnpNNjA4IDkyOGgtNjBjLTIuMiAwLTQgMS44LTQgNHY4OGMwIDIuMiAxLjggNCA0IDRoNTZjMi4yIDAgNC0xLjggNC00di05MnpNNzM2IDkyOGgtNjBjLTIuMiAwLTQgMS44LTQgNHY4OGMwIDIuMiAxLjggNCA0IDRoNTZjMi4yIDAgNC0xLjggNC00di05MnpNODY0IDkyOGgtNjBjLTIuMiAwLTQgMS44LTQgNHY4OGMwIDIuMiAxLjggNCA0IDRoNTZjMi4yIDAgNC0xLjggNC00di05MnpNMTAyNCAxNjBoLTkyYy0yLjIgMC00IDEuOC00IDR2NTZjMCAyLjIgMS44IDQgNCA0aDg4YzIuMiAwIDQtMS44IDQtNHYtNjB6TTEwMjQgMjg4aC05MmMtMi4yIDAtNCAxLjgtNCA0djU2YzAgMi4yIDEuOCA0IDQgNGg4OGMyLjIgMCA0LTEuOCA0LTR2LTYwek0xMDI0IDQxNmgtOTJjLTIuMiAwLTQgMS44LTQgNHY1NmMwIDIuMiAxLjggNCA0IDRoODhjMi4yIDAgNC0xLjggNC00di02MHpNMTAyNCA1NDRoLTkyYy0yLjIgMC00IDEuOC00IDR2NTZjMCAyLjIgMS44IDQgNCA0aDg4YzIuMiAwIDQtMS44IDQtNHYtNjB6TTEwMjQgNjcyaC05MmMtMi4yIDAtNCAxLjgtNCA0djU2YzAgMi4yIDEuOCA0IDQgNGg4OGMyLjIgMCA0LTEuOCA0LTR2LTYwek0xMDI0IDgwMGgtOTJjLTIuMiAwLTQgMS44LTQgNHY1NmMwIDIuMiAxLjggNCA0IDRoODhjMi4yIDAgNC0xLjggNC00di02MHpNOTYgMTYwSDRjLTIuMiAwLTQgMS44LTQgNHY1NmMwIDIuMiAxLjggNCA0IDRoODhjMi4yIDAgNC0xLjggNC00di02MHpNOTYgMjg4SDRjLTIuMiAwLTQgMS44LTQgNHY1NmMwIDIuMiAxLjggNCA0IDRoODhjMi4yIDAgNC0xLjggNC00di02MHpNOTYgNDE2SDRjLTIuMiAwLTQgMS44LTQgNHY1NmMwIDIuMiAxLjggNCA0IDRoODhjMi4yIDAgNC0xLjggNC00di02MHpNOTYgNTQ0SDRjLTIuMiAwLTQgMS44LTQgNHY1NmMwIDIuMiAxLjggNCA0IDRoODhjMi4yIDAgNC0xLjggNC00di02MHpNOTYgNjcySDRjLTIuMiAwLTQgMS44LTQgNHY1NmMwIDIuMiAxLjggNCA0IDRoODhjMi4yIDAgNC0xLjggNC00di02MHpNOTYgODAwSDRjLTIuMiAwLTQgMS44LTQgNHY1NmMwIDIuMiAxLjggNCA0IDRoODhjMi4yIDAgNC0xLjggNC00di02MHoiLz48cGF0aCBmaWxsPSIjMmMyYzJjIiBkPSJNNzA0IDMyNHYzNzZjMCAyLjItMS44IDQtNCA0SDMyNGMtMi4yIDAtNC0xLjgtNC00VjMyNGMwLTIuMiAxLjgtNCA0LTRoMzc2YzIuMiAwIDQgMS44IDQgNHogbS00MzItNjhjLTguOCAwLTE2IDcuMi0xNiAxNnY0ODBjMCA4LjggNy4yIDE2IDE2IDE2aDQ4MGM4LjggMCAxNi03LjIgMTYtMTZWMjcyYzAtOC44LTcuMi0xNi0xNi0xNkgyNzJ6Ii8+PC9zdmc+;" vertex="1" parent="-TJM4q__RIzKJfzwJ7_V-6">
          <mxGeometry width="40" height="40" as="geometry" />
        </mxCell>
        <mxCell id="-TJM4q__RIzKJfzwJ7_V-2" value="" style="shape=image;verticalLabelPosition=bottom;labelBackgroundColor=default;verticalAlign=top;aspect=fixed;imageAspect=0;image=data:image/svg+xml,PHN2ZyB4bWxuczp4bGluaz0iaHR0cDovL3d3dy53My5vcmcvMTk5OS94bGluayIgeG1sbnM9Imh0dHA6Ly93d3cudzMub3JnLzIwMDAvc3ZnIiBoZWlnaHQ9IjIwMCIgd2lkdGg9IjIwMCIgdmVyc2lvbj0iMS4xIiB2aWV3Qm94PSIwIDAgMTAyNCAxMDI0IiBjbGFzcz0iaWNvbiI+PHBhdGggZmlsbD0iIzJjMmMyYyIgZD0iTTk0LjMxOTg4MSAzMjIuODk3NTQxbDIwOC44MzkxMTItMjU5LjkwNjM3MWg0MTcuNjgyMDE0bDIwOC44MzkxMTIgMjU5LjkwNjM3MUw1ODMuOTgzNDA3IDg5OC42NzM3NzhhODMuOTYwNDE1IDgzLjk2MDQxNSAwIDAgMS0xNDMuOTY2ODE0IDBMOTQuMzE5ODgxIDMyMi44OTc1NDF6IG03Ni44MzIyMzggNjMuMDQ0MjY2bDI3Ny44OTg0MjkgNDYyLjg1MTc5M2E3My40MjQ1OTMgNzMuNDI0NTkzIDAgMCAwIDEyNS44OTg5MDQgMGwyNzcuODk4NDI5LTQ2Mi44NTE3OTNhNjguMDQ2Njk2IDY4LjA0NjY5NiAwIDAgMC01LjI5NDQ1OS03Ny42NDU3NDhsLTEyMi43MDE3NDgtMTUyLjcwMzA1MmExMDAuNjU1NDA3IDEwMC42NTU0MDcgMCAwIDAtNzguNDY0OTQ4LTM3LjYwOTI0NEgzNzcuNjEzMjc0YTEwMC42NTU0MDcgMTAwLjY1NTQwNyAwIDAgMC03OC40NjQ5NDggMzcuNjA5MjQ0bC0xMjIuNzAxNzQ4IDE1Mi43MDMwNTJhNjguMDQ2Njk2IDY4LjA0NjY5NiAwIDAgMC01LjI5NDQ1OSA3Ny42NDU3NDh6IG0yMjUuMjA3OTQtNjQuNTUzNzE4QTExNS40ODYzNDEgMTE1LjQ4NjM0MSAwIDAgMSAzOTYuMzI1OTI2IDMxOC41Nzc3NzhjMC02My44NDI2MDcgNTEuODMxNDY3LTExNS42NzQwNzQgMTE1LjY3NDA3NC0xMTUuNjc0MDc0czExNS42NzQwNzQgNTEuODMxNDY3IDExNS42NzQwNzQgMTE1LjY3NDA3NGMwIDAuOTM4NjY3LTAuMDExMzc4IDEuODc1NDM3LTAuMDM0MTMzIDIuODEwMzExIDI1LjgxODA3NCA3Ljk4MTUxMSA0NC41OTcwOTYgMzIuMDU0OTkzIDQ0LjU5NzA5NiA2MC40Nzg1Nzh2MTI2LjU3Nzc3N2MwIDM0LjkyOTc3OC0yOC4zNTkxMTEgNjMuMjg4ODg5LTYzLjI4ODg4OSA2My4yODg4ODloLTE5My44OTYyOTZjLTM0LjkyOTc3OCAwLTYzLjI4ODg4OS0yOC4zNTkxMTEtNjMuMjg4ODg5LTYzLjI4ODg4OXYtMTI2LjU3Nzc3N2MwLTI4LjQyMzU4NSAxOC43NzkwMjItNTIuNDk3MDY3IDQ0LjU5NzA5Ni02MC40Nzg1Nzh6IG0xMzguODY5NTcxIDM1LjA2MjUxOGExMS42MjA1MDQgMTEuNjIwNTA0IDAgMCAwLTExLjYxNDgxNS0xMS42MTQ4MTRoLTIzLjIyOTYzYTExLjYyMDUwNCAxMS42MjA1MDQgMCAwIDAtMTEuNjE0ODE1IDExLjYxNDgxNHY5NC45MjEwMDhhMTEuNjIwNTA0IDExLjYyMDUwNCAwIDAgMCAxMS42MTQ4MTUgMTEuNjE0ODE1aDIzLjIyOTYzYTExLjYyMDUwNCAxMS42MjA1MDQgMCAwIDAgMTEuNjE0ODE1LTExLjYxNDgxNXYtOTQuOTIxMDA4ek01MTIgNDc3Ljk3NDc1NmMtMTIuODIwODU5IDAtMjMuMjI5NjMgMTAuNDA4NzctMjMuMjI5NjMgMjMuMjI5NjI5czEwLjQwODc3IDIzLjIyOTYzIDIzLjIyOTYzIDIzLjIyOTYzIDIzLjIyOTYzLTEwLjQwODc3IDIzLjIyOTYzLTIzLjIyOTYzLTEwLjQwODc3LTIzLjIyOTYzLTIzLjIyOTYzLTIzLjIyOTYyOXpNNTk3LjMzMzMzMyAzMTguNTc3Nzc4YzAtNDcuMDk2NDE1LTM4LjIzNjkxOS04NS4zMzMzMzMtODUuMzMzMzMzLTg1LjMzMzMzNHMtODUuMzMzMzMzIDM4LjIzNjkxOS04NS4zMzMzMzMgODUuMzMzMzM0aDE3MC42NjY2NjZ6Ii8+PC9zdmc+;" vertex="1" parent="-TJM4q__RIzKJfzwJ7_V-6">
          <mxGeometry x="13.75" y="13.75" width="12.5" height="12.5" as="geometry" />
        </mxCell>
        <mxCell id="-TJM4q__RIzKJfzwJ7_V-7" value="" style="group" vertex="1" connectable="0" parent="1">
          <mxGeometry x="520" y="460" width="40" height="40" as="geometry" />
        </mxCell>
        <mxCell id="-TJM4q__RIzKJfzwJ7_V-8" value="" style="shape=image;verticalLabelPosition=bottom;labelBackgroundColor=default;verticalAlign=top;aspect=fixed;imageAspect=0;image=data:image/svg+xml,PHN2ZyB4bWxuczp4bGluaz0iaHR0cDovL3d3dy53My5vcmcvMTk5OS94bGluayIgeG1sbnM9Imh0dHA6Ly93d3cudzMub3JnLzIwMDAvc3ZnIiBoZWlnaHQ9IjIwMCIgd2lkdGg9IjIwMCIgdmVyc2lvbj0iMS4xIiB2aWV3Qm94PSIwIDAgMTAyNCAxMDI0IiBjbGFzcz0iaWNvbiI+PHBhdGggZmlsbD0iIzJjMmMyYyIgZD0iTTgzMiAyMDB2NjI0YzAgNC40LTMuNiA4LTggOEgyMDBjLTQuNCAwLTgtMy42LTgtOFYyMDBjMC00LjQgMy42LTggOC04aDYyNGM0LjQgMCA4IDMuNiA4IDh6IG0tNzA0LTh2NjQwYzAgMzUuMyAyOC43IDY0IDY0IDY0aDY0MGMzNS4zIDAgNjQtMjguNyA2NC02NFYxOTJjMC0zNS4zLTI4LjctNjQtNjQtNjRIMTkyYy0zNS4zIDAtNjQgMjguNy02NCA2NHpNMjI0IDBoLTYwYy0yLjIgMC00IDEuOC00IDR2ODhjMCAyLjIgMS44IDQgNCA0aDU2YzIuMiAwIDQtMS44IDQtNFYwek0zNTIgMGgtNjBjLTIuMiAwLTQgMS44LTQgNHY4OGMwIDIuMiAxLjggNCA0IDRoNTZjMi4yIDAgNC0xLjggNC00VjB6TTQ4MCAwaC02MGMtMi4yIDAtNCAxLjgtNCA0djg4YzAgMi4yIDEuOCA0IDQgNGg1NmMyLjIgMCA0LTEuOCA0LTRWMHpNNjA4IDBoLTYwYy0yLjIgMC00IDEuOC00IDR2ODhjMCAyLjIgMS44IDQgNCA0aDU2YzIuMiAwIDQtMS44IDQtNFYwek03MzYgMGgtNjBjLTIuMiAwLTQgMS44LTQgNHY4OGMwIDIuMiAxLjggNCA0IDRoNTZjMi4yIDAgNC0xLjggNC00VjB6TTg2NCAwaC02MGMtMi4yIDAtNCAxLjgtNCA0djg4YzAgMi4yIDEuOCA0IDQgNGg1NmMyLjIgMCA0LTEuOCA0LTRWMHpNMjI0IDkyOGgtNjBjLTIuMiAwLTQgMS44LTQgNHY4OGMwIDIuMiAxLjggNCA0IDRoNTZjMi4yIDAgNC0xLjggNC00di05MnpNMzUyIDkyOGgtNjBjLTIuMiAwLTQgMS44LTQgNHY4OGMwIDIuMiAxLjggNCA0IDRoNTZjMi4yIDAgNC0xLjggNC00di05MnpNNDgwIDkyOGgtNjBjLTIuMiAwLTQgMS44LTQgNHY4OGMwIDIuMiAxLjggNCA0IDRoNTZjMi4yIDAgNC0xLjggNC00di05MnpNNjA4IDkyOGgtNjBjLTIuMiAwLTQgMS44LTQgNHY4OGMwIDIuMiAxLjggNCA0IDRoNTZjMi4yIDAgNC0xLjggNC00di05MnpNNzM2IDkyOGgtNjBjLTIuMiAwLTQgMS44LTQgNHY4OGMwIDIuMiAxLjggNCA0IDRoNTZjMi4yIDAgNC0xLjggNC00di05MnpNODY0IDkyOGgtNjBjLTIuMiAwLTQgMS44LTQgNHY4OGMwIDIuMiAxLjggNCA0IDRoNTZjMi4yIDAgNC0xLjggNC00di05MnpNMTAyNCAxNjBoLTkyYy0yLjIgMC00IDEuOC00IDR2NTZjMCAyLjIgMS44IDQgNCA0aDg4YzIuMiAwIDQtMS44IDQtNHYtNjB6TTEwMjQgMjg4aC05MmMtMi4yIDAtNCAxLjgtNCA0djU2YzAgMi4yIDEuOCA0IDQgNGg4OGMyLjIgMCA0LTEuOCA0LTR2LTYwek0xMDI0IDQxNmgtOTJjLTIuMiAwLTQgMS44LTQgNHY1NmMwIDIuMiAxLjggNCA0IDRoODhjMi4yIDAgNC0xLjggNC00di02MHpNMTAyNCA1NDRoLTkyYy0yLjIgMC00IDEuOC00IDR2NTZjMCAyLjIgMS44IDQgNCA0aDg4YzIuMiAwIDQtMS44IDQtNHYtNjB6TTEwMjQgNjcyaC05MmMtMi4yIDAtNCAxLjgtNCA0djU2YzAgMi4yIDEuOCA0IDQgNGg4OGMyLjIgMCA0LTEuOCA0LTR2LTYwek0xMDI0IDgwMGgtOTJjLTIuMiAwLTQgMS44LTQgNHY1NmMwIDIuMiAxLjggNCA0IDRoODhjMi4yIDAgNC0xLjggNC00di02MHpNOTYgMTYwSDRjLTIuMiAwLTQgMS44LTQgNHY1NmMwIDIuMiAxLjggNCA0IDRoODhjMi4yIDAgNC0xLjggNC00di02MHpNOTYgMjg4SDRjLTIuMiAwLTQgMS44LTQgNHY1NmMwIDIuMiAxLjggNCA0IDRoODhjMi4yIDAgNC0xLjggNC00di02MHpNOTYgNDE2SDRjLTIuMiAwLTQgMS44LTQgNHY1NmMwIDIuMiAxLjggNCA0IDRoODhjMi4yIDAgNC0xLjggNC00di02MHpNOTYgNTQ0SDRjLTIuMiAwLTQgMS44LTQgNHY1NmMwIDIuMiAxLjggNCA0IDRoODhjMi4yIDAgNC0xLjggNC00di02MHpNOTYgNjcySDRjLTIuMiAwLTQgMS44LTQgNHY1NmMwIDIuMiAxLjggNCA0IDRoODhjMi4yIDAgNC0xLjggNC00di02MHpNOTYgODAwSDRjLTIuMiAwLTQgMS44LTQgNHY1NmMwIDIuMiAxLjggNCA0IDRoODhjMi4yIDAgNC0xLjggNC00di02MHoiLz48cGF0aCBmaWxsPSIjMmMyYzJjIiBkPSJNNzA0IDMyNHYzNzZjMCAyLjItMS44IDQtNCA0SDMyNGMtMi4yIDAtNC0xLjgtNC00VjMyNGMwLTIuMiAxLjgtNCA0LTRoMzc2YzIuMiAwIDQgMS44IDQgNHogbS00MzItNjhjLTguOCAwLTE2IDcuMi0xNiAxNnY0ODBjMCA4LjggNy4yIDE2IDE2IDE2aDQ4MGM4LjggMCAxNi03LjIgMTYtMTZWMjcyYzAtOC44LTcuMi0xNi0xNi0xNkgyNzJ6Ii8+PC9zdmc+;" vertex="1" parent="-TJM4q__RIzKJfzwJ7_V-7">
          <mxGeometry width="40" height="40" as="geometry" />
        </mxCell>
        <mxCell id="-TJM4q__RIzKJfzwJ7_V-9" value="" style="shape=image;verticalLabelPosition=bottom;labelBackgroundColor=default;verticalAlign=top;aspect=fixed;imageAspect=0;image=data:image/svg+xml,PHN2ZyB4bWxuczp4bGluaz0iaHR0cDovL3d3dy53My5vcmcvMTk5OS94bGluayIgeG1sbnM9Imh0dHA6Ly93d3cudzMub3JnLzIwMDAvc3ZnIiBoZWlnaHQ9IjIwMCIgd2lkdGg9IjIwMCIgdmVyc2lvbj0iMS4xIiB2aWV3Qm94PSIwIDAgMTAyNCAxMDI0IiBjbGFzcz0iaWNvbiI+PHBhdGggZmlsbD0iIzJjMmMyYyIgZD0iTTk0LjMxOTg4MSAzMjIuODk3NTQxbDIwOC44MzkxMTItMjU5LjkwNjM3MWg0MTcuNjgyMDE0bDIwOC44MzkxMTIgMjU5LjkwNjM3MUw1ODMuOTgzNDA3IDg5OC42NzM3NzhhODMuOTYwNDE1IDgzLjk2MDQxNSAwIDAgMS0xNDMuOTY2ODE0IDBMOTQuMzE5ODgxIDMyMi44OTc1NDF6IG03Ni44MzIyMzggNjMuMDQ0MjY2bDI3Ny44OTg0MjkgNDYyLjg1MTc5M2E3My40MjQ1OTMgNzMuNDI0NTkzIDAgMCAwIDEyNS44OTg5MDQgMGwyNzcuODk4NDI5LTQ2Mi44NTE3OTNhNjguMDQ2Njk2IDY4LjA0NjY5NiAwIDAgMC01LjI5NDQ1OS03Ny42NDU3NDhsLTEyMi43MDE3NDgtMTUyLjcwMzA1MmExMDAuNjU1NDA3IDEwMC42NTU0MDcgMCAwIDAtNzguNDY0OTQ4LTM3LjYwOTI0NEgzNzcuNjEzMjc0YTEwMC42NTU0MDcgMTAwLjY1NTQwNyAwIDAgMC03OC40NjQ5NDggMzcuNjA5MjQ0bC0xMjIuNzAxNzQ4IDE1Mi43MDMwNTJhNjguMDQ2Njk2IDY4LjA0NjY5NiAwIDAgMC01LjI5NDQ1OSA3Ny42NDU3NDh6IG0yMjUuMjA3OTQtNjQuNTUzNzE4QTExNS40ODYzNDEgMTE1LjQ4NjM0MSAwIDAgMSAzOTYuMzI1OTI2IDMxOC41Nzc3NzhjMC02My44NDI2MDcgNTEuODMxNDY3LTExNS42NzQwNzQgMTE1LjY3NDA3NC0xMTUuNjc0MDc0czExNS42NzQwNzQgNTEuODMxNDY3IDExNS42NzQwNzQgMTE1LjY3NDA3NGMwIDAuOTM4NjY3LTAuMDExMzc4IDEuODc1NDM3LTAuMDM0MTMzIDIuODEwMzExIDI1LjgxODA3NCA3Ljk4MTUxMSA0NC41OTcwOTYgMzIuMDU0OTkzIDQ0LjU5NzA5NiA2MC40Nzg1Nzh2MTI2LjU3Nzc3N2MwIDM0LjkyOTc3OC0yOC4zNTkxMTEgNjMuMjg4ODg5LTYzLjI4ODg4OSA2My4yODg4ODloLTE5My44OTYyOTZjLTM0LjkyOTc3OCAwLTYzLjI4ODg4OS0yOC4zNTkxMTEtNjMuMjg4ODg5LTYzLjI4ODg4OXYtMTI2LjU3Nzc3N2MwLTI4LjQyMzU4NSAxOC43NzkwMjItNTIuNDk3MDY3IDQ0LjU5NzA5Ni02MC40Nzg1Nzh6IG0xMzguODY5NTcxIDM1LjA2MjUxOGExMS42MjA1MDQgMTEuNjIwNTA0IDAgMCAwLTExLjYxNDgxNS0xMS42MTQ4MTRoLTIzLjIyOTYzYTExLjYyMDUwNCAxMS42MjA1MDQgMCAwIDAtMTEuNjE0ODE1IDExLjYxNDgxNHY5NC45MjEwMDhhMTEuNjIwNTA0IDExLjYyMDUwNCAwIDAgMCAxMS42MTQ4MTUgMTEuNjE0ODE1aDIzLjIyOTYzYTExLjYyMDUwNCAxMS42MjA1MDQgMCAwIDAgMTEuNjE0ODE1LTExLjYxNDgxNXYtOTQuOTIxMDA4ek01MTIgNDc3Ljk3NDc1NmMtMTIuODIwODU5IDAtMjMuMjI5NjMgMTAuNDA4NzctMjMuMjI5NjMgMjMuMjI5NjI5czEwLjQwODc3IDIzLjIyOTYzIDIzLjIyOTYzIDIzLjIyOTYzIDIzLjIyOTYzLTEwLjQwODc3IDIzLjIyOTYzLTIzLjIyOTYzLTEwLjQwODc3LTIzLjIyOTYzLTIzLjIyOTYzLTIzLjIyOTYyOXpNNTk3LjMzMzMzMyAzMTguNTc3Nzc4YzAtNDcuMDk2NDE1LTM4LjIzNjkxOS04NS4zMzMzMzMtODUuMzMzMzMzLTg1LjMzMzMzNHMtODUuMzMzMzMzIDM4LjIzNjkxOS04NS4zMzMzMzMgODUuMzMzMzM0aDE3MC42NjY2NjZ6Ii8+PC9zdmc+;" vertex="1" parent="-TJM4q__RIzKJfzwJ7_V-7">
          <mxGeometry x="13.75" y="13.75" width="12.5" height="12.5" as="geometry" />
        </mxCell>
        <mxCell id="-TJM4q__RIzKJfzwJ7_V-13" value="" style="group" vertex="1" connectable="0" parent="1">
          <mxGeometry x="400" y="580" width="40" height="40" as="geometry" />
        </mxCell>
        <mxCell id="-TJM4q__RIzKJfzwJ7_V-14" value="" style="shape=image;verticalLabelPosition=bottom;labelBackgroundColor=default;verticalAlign=top;aspect=fixed;imageAspect=0;image=data:image/svg+xml,PHN2ZyB4bWxuczp4bGluaz0iaHR0cDovL3d3dy53My5vcmcvMTk5OS94bGluayIgeG1sbnM9Imh0dHA6Ly93d3cudzMub3JnLzIwMDAvc3ZnIiBoZWlnaHQ9IjIwMCIgd2lkdGg9IjIwMCIgdmVyc2lvbj0iMS4xIiB2aWV3Qm94PSIwIDAgMTAyNCAxMDI0IiBjbGFzcz0iaWNvbiI+PHBhdGggZmlsbD0iIzJjMmMyYyIgZD0iTTgzMiAyMDB2NjI0YzAgNC40LTMuNiA4LTggOEgyMDBjLTQuNCAwLTgtMy42LTgtOFYyMDBjMC00LjQgMy42LTggOC04aDYyNGM0LjQgMCA4IDMuNiA4IDh6IG0tNzA0LTh2NjQwYzAgMzUuMyAyOC43IDY0IDY0IDY0aDY0MGMzNS4zIDAgNjQtMjguNyA2NC02NFYxOTJjMC0zNS4zLTI4LjctNjQtNjQtNjRIMTkyYy0zNS4zIDAtNjQgMjguNy02NCA2NHpNMjI0IDBoLTYwYy0yLjIgMC00IDEuOC00IDR2ODhjMCAyLjIgMS44IDQgNCA0aDU2YzIuMiAwIDQtMS44IDQtNFYwek0zNTIgMGgtNjBjLTIuMiAwLTQgMS44LTQgNHY4OGMwIDIuMiAxLjggNCA0IDRoNTZjMi4yIDAgNC0xLjggNC00VjB6TTQ4MCAwaC02MGMtMi4yIDAtNCAxLjgtNCA0djg4YzAgMi4yIDEuOCA0IDQgNGg1NmMyLjIgMCA0LTEuOCA0LTRWMHpNNjA4IDBoLTYwYy0yLjIgMC00IDEuOC00IDR2ODhjMCAyLjIgMS44IDQgNCA0aDU2YzIuMiAwIDQtMS44IDQtNFYwek03MzYgMGgtNjBjLTIuMiAwLTQgMS44LTQgNHY4OGMwIDIuMiAxLjggNCA0IDRoNTZjMi4yIDAgNC0xLjggNC00VjB6TTg2NCAwaC02MGMtMi4yIDAtNCAxLjgtNCA0djg4YzAgMi4yIDEuOCA0IDQgNGg1NmMyLjIgMCA0LTEuOCA0LTRWMHpNMjI0IDkyOGgtNjBjLTIuMiAwLTQgMS44LTQgNHY4OGMwIDIuMiAxLjggNCA0IDRoNTZjMi4yIDAgNC0xLjggNC00di05MnpNMzUyIDkyOGgtNjBjLTIuMiAwLTQgMS44LTQgNHY4OGMwIDIuMiAxLjggNCA0IDRoNTZjMi4yIDAgNC0xLjggNC00di05MnpNNDgwIDkyOGgtNjBjLTIuMiAwLTQgMS44LTQgNHY4OGMwIDIuMiAxLjggNCA0IDRoNTZjMi4yIDAgNC0xLjggNC00di05MnpNNjA4IDkyOGgtNjBjLTIuMiAwLTQgMS44LTQgNHY4OGMwIDIuMiAxLjggNCA0IDRoNTZjMi4yIDAgNC0xLjggNC00di05MnpNNzM2IDkyOGgtNjBjLTIuMiAwLTQgMS44LTQgNHY4OGMwIDIuMiAxLjggNCA0IDRoNTZjMi4yIDAgNC0xLjggNC00di05MnpNODY0IDkyOGgtNjBjLTIuMiAwLTQgMS44LTQgNHY4OGMwIDIuMiAxLjggNCA0IDRoNTZjMi4yIDAgNC0xLjggNC00di05MnpNMTAyNCAxNjBoLTkyYy0yLjIgMC00IDEuOC00IDR2NTZjMCAyLjIgMS44IDQgNCA0aDg4YzIuMiAwIDQtMS44IDQtNHYtNjB6TTEwMjQgMjg4aC05MmMtMi4yIDAtNCAxLjgtNCA0djU2YzAgMi4yIDEuOCA0IDQgNGg4OGMyLjIgMCA0LTEuOCA0LTR2LTYwek0xMDI0IDQxNmgtOTJjLTIuMiAwLTQgMS44LTQgNHY1NmMwIDIuMiAxLjggNCA0IDRoODhjMi4yIDAgNC0xLjggNC00di02MHpNMTAyNCA1NDRoLTkyYy0yLjIgMC00IDEuOC00IDR2NTZjMCAyLjIgMS44IDQgNCA0aDg4YzIuMiAwIDQtMS44IDQtNHYtNjB6TTEwMjQgNjcyaC05MmMtMi4yIDAtNCAxLjgtNCA0djU2YzAgMi4yIDEuOCA0IDQgNGg4OGMyLjIgMCA0LTEuOCA0LTR2LTYwek0xMDI0IDgwMGgtOTJjLTIuMiAwLTQgMS44LTQgNHY1NmMwIDIuMiAxLjggNCA0IDRoODhjMi4yIDAgNC0xLjggNC00di02MHpNOTYgMTYwSDRjLTIuMiAwLTQgMS44LTQgNHY1NmMwIDIuMiAxLjggNCA0IDRoODhjMi4yIDAgNC0xLjggNC00di02MHpNOTYgMjg4SDRjLTIuMiAwLTQgMS44LTQgNHY1NmMwIDIuMiAxLjggNCA0IDRoODhjMi4yIDAgNC0xLjggNC00di02MHpNOTYgNDE2SDRjLTIuMiAwLTQgMS44LTQgNHY1NmMwIDIuMiAxLjggNCA0IDRoODhjMi4yIDAgNC0xLjggNC00di02MHpNOTYgNTQ0SDRjLTIuMiAwLTQgMS44LTQgNHY1NmMwIDIuMiAxLjggNCA0IDRoODhjMi4yIDAgNC0xLjggNC00di02MHpNOTYgNjcySDRjLTIuMiAwLTQgMS44LTQgNHY1NmMwIDIuMiAxLjggNCA0IDRoODhjMi4yIDAgNC0xLjggNC00di02MHpNOTYgODAwSDRjLTIuMiAwLTQgMS44LTQgNHY1NmMwIDIuMiAxLjggNCA0IDRoODhjMi4yIDAgNC0xLjggNC00di02MHoiLz48cGF0aCBmaWxsPSIjMmMyYzJjIiBkPSJNNzA0IDMyNHYzNzZjMCAyLjItMS44IDQtNCA0SDMyNGMtMi4yIDAtNC0xLjgtNC00VjMyNGMwLTIuMiAxLjgtNCA0LTRoMzc2YzIuMiAwIDQgMS44IDQgNHogbS00MzItNjhjLTguOCAwLTE2IDcuMi0xNiAxNnY0ODBjMCA4LjggNy4yIDE2IDE2IDE2aDQ4MGM4LjggMCAxNi03LjIgMTYtMTZWMjcyYzAtOC44LTcuMi0xNi0xNi0xNkgyNzJ6Ii8+PC9zdmc+;" vertex="1" parent="-TJM4q__RIzKJfzwJ7_V-13">
          <mxGeometry width="40" height="40" as="geometry" />
        </mxCell>
        <mxCell id="-TJM4q__RIzKJfzwJ7_V-15" value="" style="shape=image;verticalLabelPosition=bottom;labelBackgroundColor=default;verticalAlign=top;aspect=fixed;imageAspect=0;image=data:image/svg+xml,PHN2ZyB4bWxuczp4bGluaz0iaHR0cDovL3d3dy53My5vcmcvMTk5OS94bGluayIgeG1sbnM9Imh0dHA6Ly93d3cudzMub3JnLzIwMDAvc3ZnIiBoZWlnaHQ9IjIwMCIgd2lkdGg9IjIwMCIgdmVyc2lvbj0iMS4xIiB2aWV3Qm94PSIwIDAgMTAyNCAxMDI0IiBjbGFzcz0iaWNvbiI+PHBhdGggZmlsbD0iIzJjMmMyYyIgZD0iTTk0LjMxOTg4MSAzMjIuODk3NTQxbDIwOC44MzkxMTItMjU5LjkwNjM3MWg0MTcuNjgyMDE0bDIwOC44MzkxMTIgMjU5LjkwNjM3MUw1ODMuOTgzNDA3IDg5OC42NzM3NzhhODMuOTYwNDE1IDgzLjk2MDQxNSAwIDAgMS0xNDMuOTY2ODE0IDBMOTQuMzE5ODgxIDMyMi44OTc1NDF6IG03Ni44MzIyMzggNjMuMDQ0MjY2bDI3Ny44OTg0MjkgNDYyLjg1MTc5M2E3My40MjQ1OTMgNzMuNDI0NTkzIDAgMCAwIDEyNS44OTg5MDQgMGwyNzcuODk4NDI5LTQ2Mi44NTE3OTNhNjguMDQ2Njk2IDY4LjA0NjY5NiAwIDAgMC01LjI5NDQ1OS03Ny42NDU3NDhsLTEyMi43MDE3NDgtMTUyLjcwMzA1MmExMDAuNjU1NDA3IDEwMC42NTU0MDcgMCAwIDAtNzguNDY0OTQ4LTM3LjYwOTI0NEgzNzcuNjEzMjc0YTEwMC42NTU0MDcgMTAwLjY1NTQwNyAwIDAgMC03OC40NjQ5NDggMzcuNjA5MjQ0bC0xMjIuNzAxNzQ4IDE1Mi43MDMwNTJhNjguMDQ2Njk2IDY4LjA0NjY5NiAwIDAgMC01LjI5NDQ1OSA3Ny42NDU3NDh6IG0yMjUuMjA3OTQtNjQuNTUzNzE4QTExNS40ODYzNDEgMTE1LjQ4NjM0MSAwIDAgMSAzOTYuMzI1OTI2IDMxOC41Nzc3NzhjMC02My44NDI2MDcgNTEuODMxNDY3LTExNS42NzQwNzQgMTE1LjY3NDA3NC0xMTUuNjc0MDc0czExNS42NzQwNzQgNTEuODMxNDY3IDExNS42NzQwNzQgMTE1LjY3NDA3NGMwIDAuOTM4NjY3LTAuMDExMzc4IDEuODc1NDM3LTAuMDM0MTMzIDIuODEwMzExIDI1LjgxODA3NCA3Ljk4MTUxMSA0NC41OTcwOTYgMzIuMDU0OTkzIDQ0LjU5NzA5NiA2MC40Nzg1Nzh2MTI2LjU3Nzc3N2MwIDM0LjkyOTc3OC0yOC4zNTkxMTEgNjMuMjg4ODg5LTYzLjI4ODg4OSA2My4yODg4ODloLTE5My44OTYyOTZjLTM0LjkyOTc3OCAwLTYzLjI4ODg4OS0yOC4zNTkxMTEtNjMuMjg4ODg5LTYzLjI4ODg4OXYtMTI2LjU3Nzc3N2MwLTI4LjQyMzU4NSAxOC43NzkwMjItNTIuNDk3MDY3IDQ0LjU5NzA5Ni02MC40Nzg1Nzh6IG0xMzguODY5NTcxIDM1LjA2MjUxOGExMS42MjA1MDQgMTEuNjIwNTA0IDAgMCAwLTExLjYxNDgxNS0xMS42MTQ4MTRoLTIzLjIyOTYzYTExLjYyMDUwNCAxMS42MjA1MDQgMCAwIDAtMTEuNjE0ODE1IDExLjYxNDgxNHY5NC45MjEwMDhhMTEuNjIwNTA0IDExLjYyMDUwNCAwIDAgMCAxMS42MTQ4MTUgMTEuNjE0ODE1aDIzLjIyOTYzYTExLjYyMDUwNCAxMS42MjA1MDQgMCAwIDAgMTEuNjE0ODE1LTExLjYxNDgxNXYtOTQuOTIxMDA4ek01MTIgNDc3Ljk3NDc1NmMtMTIuODIwODU5IDAtMjMuMjI5NjMgMTAuNDA4NzctMjMuMjI5NjMgMjMuMjI5NjI5czEwLjQwODc3IDIzLjIyOTYzIDIzLjIyOTYzIDIzLjIyOTYzIDIzLjIyOTYzLTEwLjQwODc3IDIzLjIyOTYzLTIzLjIyOTYzLTEwLjQwODc3LTIzLjIyOTYzLTIzLjIyOTYzLTIzLjIyOTYyOXpNNTk3LjMzMzMzMyAzMTguNTc3Nzc4YzAtNDcuMDk2NDE1LTM4LjIzNjkxOS04NS4zMzMzMzMtODUuMzMzMzMzLTg1LjMzMzMzNHMtODUuMzMzMzMzIDM4LjIzNjkxOS04NS4zMzMzMzMgODUuMzMzMzM0aDE3MC42NjY2NjZ6Ii8+PC9zdmc+;" vertex="1" parent="-TJM4q__RIzKJfzwJ7_V-13">
          <mxGeometry x="13.75" y="13.75" width="12.5" height="12.5" as="geometry" />
        </mxCell>
        <mxCell id="-TJM4q__RIzKJfzwJ7_V-16" value="" style="group" vertex="1" connectable="0" parent="1">
          <mxGeometry x="520" y="580" width="40" height="40" as="geometry" />
        </mxCell>
        <mxCell id="-TJM4q__RIzKJfzwJ7_V-17" value="" style="shape=image;verticalLabelPosition=bottom;labelBackgroundColor=default;verticalAlign=top;aspect=fixed;imageAspect=0;image=data:image/svg+xml,PHN2ZyB4bWxuczp4bGluaz0iaHR0cDovL3d3dy53My5vcmcvMTk5OS94bGluayIgeG1sbnM9Imh0dHA6Ly93d3cudzMub3JnLzIwMDAvc3ZnIiBoZWlnaHQ9IjIwMCIgd2lkdGg9IjIwMCIgdmVyc2lvbj0iMS4xIiB2aWV3Qm94PSIwIDAgMTAyNCAxMDI0IiBjbGFzcz0iaWNvbiI+PHBhdGggZmlsbD0iIzJjMmMyYyIgZD0iTTgzMiAyMDB2NjI0YzAgNC40LTMuNiA4LTggOEgyMDBjLTQuNCAwLTgtMy42LTgtOFYyMDBjMC00LjQgMy42LTggOC04aDYyNGM0LjQgMCA4IDMuNiA4IDh6IG0tNzA0LTh2NjQwYzAgMzUuMyAyOC43IDY0IDY0IDY0aDY0MGMzNS4zIDAgNjQtMjguNyA2NC02NFYxOTJjMC0zNS4zLTI4LjctNjQtNjQtNjRIMTkyYy0zNS4zIDAtNjQgMjguNy02NCA2NHpNMjI0IDBoLTYwYy0yLjIgMC00IDEuOC00IDR2ODhjMCAyLjIgMS44IDQgNCA0aDU2YzIuMiAwIDQtMS44IDQtNFYwek0zNTIgMGgtNjBjLTIuMiAwLTQgMS44LTQgNHY4OGMwIDIuMiAxLjggNCA0IDRoNTZjMi4yIDAgNC0xLjggNC00VjB6TTQ4MCAwaC02MGMtMi4yIDAtNCAxLjgtNCA0djg4YzAgMi4yIDEuOCA0IDQgNGg1NmMyLjIgMCA0LTEuOCA0LTRWMHpNNjA4IDBoLTYwYy0yLjIgMC00IDEuOC00IDR2ODhjMCAyLjIgMS44IDQgNCA0aDU2YzIuMiAwIDQtMS44IDQtNFYwek03MzYgMGgtNjBjLTIuMiAwLTQgMS44LTQgNHY4OGMwIDIuMiAxLjggNCA0IDRoNTZjMi4yIDAgNC0xLjggNC00VjB6TTg2NCAwaC02MGMtMi4yIDAtNCAxLjgtNCA0djg4YzAgMi4yIDEuOCA0IDQgNGg1NmMyLjIgMCA0LTEuOCA0LTRWMHpNMjI0IDkyOGgtNjBjLTIuMiAwLTQgMS44LTQgNHY4OGMwIDIuMiAxLjggNCA0IDRoNTZjMi4yIDAgNC0xLjggNC00di05MnpNMzUyIDkyOGgtNjBjLTIuMiAwLTQgMS44LTQgNHY4OGMwIDIuMiAxLjggNCA0IDRoNTZjMi4yIDAgNC0xLjggNC00di05MnpNNDgwIDkyOGgtNjBjLTIuMiAwLTQgMS44LTQgNHY4OGMwIDIuMiAxLjggNCA0IDRoNTZjMi4yIDAgNC0xLjggNC00di05MnpNNjA4IDkyOGgtNjBjLTIuMiAwLTQgMS44LTQgNHY4OGMwIDIuMiAxLjggNCA0IDRoNTZjMi4yIDAgNC0xLjggNC00di05MnpNNzM2IDkyOGgtNjBjLTIuMiAwLTQgMS44LTQgNHY4OGMwIDIuMiAxLjggNCA0IDRoNTZjMi4yIDAgNC0xLjggNC00di05MnpNODY0IDkyOGgtNjBjLTIuMiAwLTQgMS44LTQgNHY4OGMwIDIuMiAxLjggNCA0IDRoNTZjMi4yIDAgNC0xLjggNC00di05MnpNMTAyNCAxNjBoLTkyYy0yLjIgMC00IDEuOC00IDR2NTZjMCAyLjIgMS44IDQgNCA0aDg4YzIuMiAwIDQtMS44IDQtNHYtNjB6TTEwMjQgMjg4aC05MmMtMi4yIDAtNCAxLjgtNCA0djU2YzAgMi4yIDEuOCA0IDQgNGg4OGMyLjIgMCA0LTEuOCA0LTR2LTYwek0xMDI0IDQxNmgtOTJjLTIuMiAwLTQgMS44LTQgNHY1NmMwIDIuMiAxLjggNCA0IDRoODhjMi4yIDAgNC0xLjggNC00di02MHpNMTAyNCA1NDRoLTkyYy0yLjIgMC00IDEuOC00IDR2NTZjMCAyLjIgMS44IDQgNCA0aDg4YzIuMiAwIDQtMS44IDQtNHYtNjB6TTEwMjQgNjcyaC05MmMtMi4yIDAtNCAxLjgtNCA0djU2YzAgMi4yIDEuOCA0IDQgNGg4OGMyLjIgMCA0LTEuOCA0LTR2LTYwek0xMDI0IDgwMGgtOTJjLTIuMiAwLTQgMS44LTQgNHY1NmMwIDIuMiAxLjggNCA0IDRoODhjMi4yIDAgNC0xLjggNC00di02MHpNOTYgMTYwSDRjLTIuMiAwLTQgMS44LTQgNHY1NmMwIDIuMiAxLjggNCA0IDRoODhjMi4yIDAgNC0xLjggNC00di02MHpNOTYgMjg4SDRjLTIuMiAwLTQgMS44LTQgNHY1NmMwIDIuMiAxLjggNCA0IDRoODhjMi4yIDAgNC0xLjggNC00di02MHpNOTYgNDE2SDRjLTIuMiAwLTQgMS44LTQgNHY1NmMwIDIuMiAxLjggNCA0IDRoODhjMi4yIDAgNC0xLjggNC00di02MHpNOTYgNTQ0SDRjLTIuMiAwLTQgMS44LTQgNHY1NmMwIDIuMiAxLjggNCA0IDRoODhjMi4yIDAgNC0xLjggNC00di02MHpNOTYgNjcySDRjLTIuMiAwLTQgMS44LTQgNHY1NmMwIDIuMiAxLjggNCA0IDRoODhjMi4yIDAgNC0xLjggNC00di02MHpNOTYgODAwSDRjLTIuMiAwLTQgMS44LTQgNHY1NmMwIDIuMiAxLjggNCA0IDRoODhjMi4yIDAgNC0xLjggNC00di02MHoiLz48cGF0aCBmaWxsPSIjMmMyYzJjIiBkPSJNNzA0IDMyNHYzNzZjMCAyLjItMS44IDQtNCA0SDMyNGMtMi4yIDAtNC0xLjgtNC00VjMyNGMwLTIuMiAxLjgtNCA0LTRoMzc2YzIuMiAwIDQgMS44IDQgNHogbS00MzItNjhjLTguOCAwLTE2IDcuMi0xNiAxNnY0ODBjMCA4LjggNy4yIDE2IDE2IDE2aDQ4MGM4LjggMCAxNi03LjIgMTYtMTZWMjcyYzAtOC44LTcuMi0xNi0xNi0xNkgyNzJ6Ii8+PC9zdmc+;" vertex="1" parent="-TJM4q__RIzKJfzwJ7_V-16">
          <mxGeometry width="40" height="40" as="geometry" />
        </mxCell>
        <mxCell id="-TJM4q__RIzKJfzwJ7_V-18" value="" style="shape=image;verticalLabelPosition=bottom;labelBackgroundColor=default;verticalAlign=top;aspect=fixed;imageAspect=0;image=data:image/svg+xml,PHN2ZyB4bWxuczp4bGluaz0iaHR0cDovL3d3dy53My5vcmcvMTk5OS94bGluayIgeG1sbnM9Imh0dHA6Ly93d3cudzMub3JnLzIwMDAvc3ZnIiBoZWlnaHQ9IjIwMCIgd2lkdGg9IjIwMCIgdmVyc2lvbj0iMS4xIiB2aWV3Qm94PSIwIDAgMTAyNCAxMDI0IiBjbGFzcz0iaWNvbiI+PHBhdGggZmlsbD0iIzJjMmMyYyIgZD0iTTk0LjMxOTg4MSAzMjIuODk3NTQxbDIwOC44MzkxMTItMjU5LjkwNjM3MWg0MTcuNjgyMDE0bDIwOC44MzkxMTIgMjU5LjkwNjM3MUw1ODMuOTgzNDA3IDg5OC42NzM3NzhhODMuOTYwNDE1IDgzLjk2MDQxNSAwIDAgMS0xNDMuOTY2ODE0IDBMOTQuMzE5ODgxIDMyMi44OTc1NDF6IG03Ni44MzIyMzggNjMuMDQ0MjY2bDI3Ny44OTg0MjkgNDYyLjg1MTc5M2E3My40MjQ1OTMgNzMuNDI0NTkzIDAgMCAwIDEyNS44OTg5MDQgMGwyNzcuODk4NDI5LTQ2Mi44NTE3OTNhNjguMDQ2Njk2IDY4LjA0NjY5NiAwIDAgMC01LjI5NDQ1OS03Ny42NDU3NDhsLTEyMi43MDE3NDgtMTUyLjcwMzA1MmExMDAuNjU1NDA3IDEwMC42NTU0MDcgMCAwIDAtNzguNDY0OTQ4LTM3LjYwOTI0NEgzNzcuNjEzMjc0YTEwMC42NTU0MDcgMTAwLjY1NTQwNyAwIDAgMC03OC40NjQ5NDggMzcuNjA5MjQ0bC0xMjIuNzAxNzQ4IDE1Mi43MDMwNTJhNjguMDQ2Njk2IDY4LjA0NjY5NiAwIDAgMC01LjI5NDQ1OSA3Ny42NDU3NDh6IG0yMjUuMjA3OTQtNjQuNTUzNzE4QTExNS40ODYzNDEgMTE1LjQ4NjM0MSAwIDAgMSAzOTYuMzI1OTI2IDMxOC41Nzc3NzhjMC02My44NDI2MDcgNTEuODMxNDY3LTExNS42NzQwNzQgMTE1LjY3NDA3NC0xMTUuNjc0MDc0czExNS42NzQwNzQgNTEuODMxNDY3IDExNS42NzQwNzQgMTE1LjY3NDA3NGMwIDAuOTM4NjY3LTAuMDExMzc4IDEuODc1NDM3LTAuMDM0MTMzIDIuODEwMzExIDI1LjgxODA3NCA3Ljk4MTUxMSA0NC41OTcwOTYgMzIuMDU0OTkzIDQ0LjU5NzA5NiA2MC40Nzg1Nzh2MTI2LjU3Nzc3N2MwIDM0LjkyOTc3OC0yOC4zNTkxMTEgNjMuMjg4ODg5LTYzLjI4ODg4OSA2My4yODg4ODloLTE5My44OTYyOTZjLTM0LjkyOTc3OCAwLTYzLjI4ODg4OS0yOC4zNTkxMTEtNjMuMjg4ODg5LTYzLjI4ODg4OXYtMTI2LjU3Nzc3N2MwLTI4LjQyMzU4NSAxOC43NzkwMjItNTIuNDk3MDY3IDQ0LjU5NzA5Ni02MC40Nzg1Nzh6IG0xMzguODY5NTcxIDM1LjA2MjUxOGExMS42MjA1MDQgMTEuNjIwNTA0IDAgMCAwLTExLjYxNDgxNS0xMS42MTQ4MTRoLTIzLjIyOTYzYTExLjYyMDUwNCAxMS42MjA1MDQgMCAwIDAtMTEuNjE0ODE1IDExLjYxNDgxNHY5NC45MjEwMDhhMTEuNjIwNTA0IDExLjYyMDUwNCAwIDAgMCAxMS42MTQ4MTUgMTEuNjE0ODE1aDIzLjIyOTYzYTExLjYyMDUwNCAxMS42MjA1MDQgMCAwIDAgMTEuNjE0ODE1LTExLjYxNDgxNXYtOTQuOTIxMDA4ek01MTIgNDc3Ljk3NDc1NmMtMTIuODIwODU5IDAtMjMuMjI5NjMgMTAuNDA4NzctMjMuMjI5NjMgMjMuMjI5NjI5czEwLjQwODc3IDIzLjIyOTYzIDIzLjIyOTYzIDIzLjIyOTYzIDIzLjIyOTYzLTEwLjQwODc3IDIzLjIyOTYzLTIzLjIyOTYzLTEwLjQwODc3LTIzLjIyOTYzLTIzLjIyOTYzLTIzLjIyOTYyOXpNNTk3LjMzMzMzMyAzMTguNTc3Nzc4YzAtNDcuMDk2NDE1LTM4LjIzNjkxOS04NS4zMzMzMzMtODUuMzMzMzMzLTg1LjMzMzMzNHMtODUuMzMzMzMzIDM4LjIzNjkxOS04NS4zMzMzMzMgODUuMzMzMzM0aDE3MC42NjY2NjZ6Ii8+PC9zdmc+;" vertex="1" parent="-TJM4q__RIzKJfzwJ7_V-16">
          <mxGeometry x="13.75" y="13.75" width="12.5" height="12.5" as="geometry" />
        </mxCell>
        <mxCell id="-TJM4q__RIzKJfzwJ7_V-19" value="" style="shape=image;verticalLabelPosition=bottom;labelBackgroundColor=default;verticalAlign=top;aspect=fixed;imageAspect=0;image=data:image/svg+xml,PHN2ZyB4bWxuczp4bGluaz0iaHR0cDovL3d3dy53My5vcmcvMTk5OS94bGluayIgeG1sbnM9Imh0dHA6Ly93d3cudzMub3JnLzIwMDAvc3ZnIiBoZWlnaHQ9IjIwMCIgd2lkdGg9IjIwMCIgdmVyc2lvbj0iMS4xIiB2aWV3Qm94PSIwIDAgMTAyNCAxMDI0IiBjbGFzcz0iaWNvbiI+PHBhdGggZmlsbD0iIzhhOGE4YSIgZD0iTTM0NS4zMTU1NTYgMTcwLjA5Nzc3OGgxMjYuMjkzMzMzYzIxLjYxNzc3OCAwIDM1Ljg0LTE1LjkyODg4OSAzNS44NC0zNS44NHMtMTQuMjIyMjIyLTM1Ljg0LTM1Ljg0LTM1Ljg0SDM0NS4zMTU1NTZjLTIxLjYxNzc3OCAwLTM1Ljg0IDE1LjkyODg4OS0zNS44NCAzNS44NHMxNC4yMjIyMjIgMzUuODQgMzUuODQgMzUuODR6TTY5Ni44ODg4ODkgNTQyLjE1MTExMXYtNS42ODg4ODljMC0yMy44OTMzMzMgMTkuMzQyMjIyLTQzLjgwNDQ0NCA0My44MDQ0NDQtNDMuODA0NDQ0IDIzLjg5MzMzMyAwIDQzLjgwNDQ0NCAxOS4zNDIyMjIgNDMuODA0NDQ1IDQzLjgwNDQ0NHY1LjY4ODg4OWMxNS45Mjg4ODkgMy45ODIyMjIgMzEuMjg4ODg5IDEwLjI0IDQ0Ljk0MjIyMiAxOC43NzMzMzNsMy45ODIyMjItMy45ODIyMjJjMTcuMDY2NjY3LTE3LjA2NjY2NyA0NC4zNzMzMzMtMTcuMDY2NjY3IDYxLjQ0IDAgMTcuMDY2NjY3IDE3LjA2NjY2NyAxNy4wNjY2NjcgNDQuMzczMzMzIDAgNjEuNDRsLTMuOTgyMjIyIDMuOTgyMjIyYzcuOTY0NDQ0IDEzLjY1MzMzMyAxNC43OTExMTEgMjkuMDEzMzMzIDE4Ljc3MzMzMyA0NC45NDIyMjNoNS42ODg4ODljMjMuODkzMzMzLTEuMTM3Nzc4IDQ0LjM3MzMzMyAxNy42MzU1NTYgNDUuNTExMTExIDQxLjUyODg4OSAxLjEzNzc3OCAyMy44OTMzMzMtMTcuNjM1NTU2IDQ0LjM3MzMzMy00MS41Mjg4ODkgNDUuNTExMTExaC05LjY3MTExMWMtMy45ODIyMjIgMTUuOTI4ODg5LTEwLjI0IDMwLjcyLTE4Ljc3MzMzMyA0NC45NDIyMjJsMy45ODIyMjIgMy45ODIyMjJjMTcuMDY2NjY3IDE3LjA2NjY2NyAxNy4wNjY2NjcgNDQuMzczMzMzIDAgNjEuNDQtMTcuMDY2NjY3IDE3LjA2NjY2Ny00NC4zNzMzMzMgMTcuMDY2NjY3LTYxLjQ0IDBsLTMuOTgyMjIyLTMuOTgyMjIyYy0xNC4yMjIyMjIgOC41MzMzMzMtMjkuMDEzMzMzIDE0Ljc5MTExMS00NC45NDIyMjIgMTguNzczMzMzdjUuNjg4ODg5YzAgMjMuODkzMzMzLTE5LjM0MjIyMiA0My44MDQ0NDQtNDMuODA0NDQ1IDQzLjgwNDQ0NS0yMy44OTMzMzMgMC00My44MDQ0NDQtMTkuMzQyMjIyLTQzLjgwNDQ0NC00My44MDQ0NDV2LTUuNjg4ODg5Yy0xNS45Mjg4ODktMy45ODIyMjItMzAuNzItMTAuMjQtNDQuOTQyMjIyLTE4Ljc3MzMzM2wtMy45ODIyMjMgMy45ODIyMjJjLTE3LjA2NjY2NyAxNi40OTc3NzgtNDQuMzczMzMzIDE2LjQ5Nzc3OC02MC44NzExMTEtMC41Njg4ODktMTcuMDY2NjY3LTE2LjQ5Nzc3OC0xNy4wNjY2NjctNDMuODA0NDQ0LTAuNTY4ODg5LTYwLjg3MTExMWwzLjk4MjIyMy0zLjk4MjIyMmMtOC41MzMzMzMtMTQuMjIyMjIyLTE0Ljc5MTExMS0yOS4wMTMzMzMtMTguNzczMzM0LTQ0Ljk0MjIyMmgtNS42ODg4ODljLTIzLjg5MzMzMyAxLjEzNzc3OC00NC4zNzMzMzMtMTcuNjM1NTU2LTQ1LjUxMTExMS00MS41Mjg4ODlzMTcuNjM1NTU2LTQ0LjM3MzMzMyA0MS41Mjg4ODktNDUuNTExMTExaDkuNjcxMTExYzMuOTgyMjIyLTE1LjkyODg4OSAxMC4yNC0zMS4yODg4ODkgMTguNzczMzM0LTQ0Ljk0MjIyM2wtMy45ODIyMjMtMy45ODIyMjJjLTE3LjA2NjY2Ny0xNy4wNjY2NjctMTcuMDY2NjY3LTQ0LjM3MzMzMyAwLTYxLjQ0IDE3LjA2NjY2Ny0xNy4wNjY2NjcgNDQuMzczMzMzLTE3LjA2NjY2NyA2MS40NCAwbDMuOTgyMjIzIDMuOTgyMjIyYzE0LjIyMjIyMi04LjUzMzMzMyAyOS4wMTMzMzMtMTQuNzkxMTExIDQ0Ljk0MjIyMi0xOC43NzMzMzN6IG00My44MDQ0NDQgMjU1LjQzMTExMWM0OC4zNTU1NTYgMCA4Ny4wNC0zOC42ODQ0NDQgODcuMDQtODcuMDRzLTM5LjI1MzMzMy04Ny4wNC04Ny4wNC04Ny4wNGMtNDguMzU1NTU2LTEuNzA2NjY3LTg4LjE3Nzc3OCAzNi40MDg4ODktODkuODg0NDQ0IDg0LjE5NTU1Ni0xLjcwNjY2NyA0Ny43ODY2NjcgMzYuNDA4ODg5IDg4LjE3Nzc3OCA4NC4xOTU1NTUgODkuODg0NDQ0aDUuNjg4ODg5eiIvPjxwYXRoIGZpbGw9IiM4YThhOGEiIGQ9Ik02ODcuNzg2NjY3IDkxOC4xODY2Njd2LTEuMTM3Nzc4YzAtMy40MTMzMzMtMi4yNzU1NTYtNi4yNTc3NzgtNS42ODg4ODktNy4zOTU1NTYtMTUuMzYtNC41NTExMTEtMzAuMTUxMTExLTEwLjI0LTQzLjgwNDQ0NS0xOC4yMDQ0NDQtMi44NDQ0NDQtMS43MDY2NjctNi44MjY2NjctMS4xMzc3NzgtOS4xMDIyMjIgMS4xMzc3NzhsLTAuNTY4ODg5IDAuNTY4ODg5Yy0yMC40OCAxOS45MTExMTEtNTMuNDc1NTU2IDE5LjM0MjIyMi03My4zODY2NjYtMC41Njg4ODktMjAuNDgtMTkuOTExMTExLTIwLjQ4LTUyLjkwNjY2Ny0wLjU2ODg4OS03My4zODY2NjdsMC41Njg4ODktMC41Njg4ODljMi4yNzU1NTYtMi4yNzU1NTYgMi44NDQ0NDQtNi4yNTc3NzggMS4xMzc3NzctOS4xMDIyMjItNy45NjQ0NDQtMTMuNjUzMzMzLTEzLjY1MzMzMy0yOC40NDQ0NDQtMTguMjA0NDQ0LTQzLjgwNDQ0NS0xLjEzNzc3OC0zLjQxMzMzMy0zLjk4MjIyMi01LjY4ODg4OS03LjM5NTU1Ni01LjY4ODg4OGgtMS4xMzc3NzdjLTI5LjAxMzMzMyAxLjEzNzc3OC01My40NzU1NTYtMjEuMDQ4ODg5LTU0LjYxMzMzNC01MC4wNjIyMjMtMS4xMzc3NzgtMjkuMDEzMzMzIDIxLjA0ODg4OS01My40NzU1NTYgNTAuMDYyMjIyLTU0LjYxMzMzM2g1LjY4ODg4OWMzLjQxMzMzMyAwIDYuMjU3Nzc4LTIuMjc1NTU2IDcuMzk1NTU2LTUuNjg4ODg5IDQuNTUxMTExLTE1LjM2IDEwLjgwODg4OS0zMC4xNTExMTEgMTguMjA0NDQ0LTQzLjgwNDQ0NCAxLjcwNjY2Ny0yLjg0NDQ0NCAxLjEzNzc3OC02LjgyNjY2Ny0xLjEzNzc3Ny05LjEwMjIyM2wtMC41Njg4ODktMC41Njg4ODhjLTIwLjQ4LTIwLjQ4LTIwLjQ4LTUzLjQ3NTU1NiAwLTczLjk1NTU1NiAyMC40OC0yMC40OCA1My40NzU1NTYtMjAuNDggNzMuOTU1NTU1IDBsMC41Njg4ODkgMC41Njg4ODljMi4yNzU1NTYgMi4yNzU1NTYgNi4yNTc3NzggMi44NDQ0NDQgOS4xMDIyMjIgMS4xMzc3NzggMTMuNjUzMzMzLTcuMzk1NTU2IDI4LjQ0NDQ0NC0xMy42NTMzMzMgNDMuODA0NDQ1LTE4LjIwNDQ0NSAzLjQxMzMzMy0xLjEzNzc3OCA1LjY4ODg4OS0zLjk4MjIyMiA1LjY4ODg4OS03LjM5NTU1NXYtMS4xMzc3NzhjMC0yOS4wMTMzMzMgMjMuMzI0NDQ0LTUyLjMzNzc3OCA1Mi4zMzc3NzctNTIuMzM3Nzc4aDMuNDEzMzM0YzQuNTUxMTExIDAuNTY4ODg5IDcuOTY0NDQ0LTIuODQ0NDQ0IDcuOTY0NDQ0LTcuMzk1NTU1di0yODQuNDQ0NDQ1YzAtMjIuMTg2NjY3LTE3LjYzNTU1Ni0zOS44MjIyMjItMzkuODIyMjIyLTM5LjgyMjIyMkg1NTAuNjg0NDQ0Yy0zLjk4MjIyMiAwLTcuMzk1NTU2IDMuNDEzMzMzLTcuMzk1NTU1IDcuMzk1NTU1djMuNDEzMzM0YzAgMzguNjg0NDQ0LTMxLjI4ODg4OSA2OS45NzMzMzMtNjkuOTczMzMzIDY5Ljk3MzMzM0gzNDYuNDUzMzMzYy0zOC42ODQ0NDQgMC02OS45NzMzMzMtMzEuMjg4ODg5LTY5Ljk3MzMzMy02OS45NzMzMzN2LTMuNDEzMzM0YzAtMy45ODIyMjItMy40MTMzMzMtNy4zOTU1NTYtNy4zOTU1NTYtNy4zOTU1NTVoLTE2NC45Nzc3NzdjLTIyLjE4NjY2NyAwLTM5LjgyMjIyMiAxNy42MzU1NTYtMzkuODIyMjIzIDM5LjgyMjIyMnY3MjkuODg0NDQ1YzAgMjIuMTg2NjY3IDE3LjYzNTU1NiAzOS44MjIyMjIgMzkuODIyMjIzIDM5LjgyMjIyMmg1NzYuMjg0NDQ0YzQuNTUxMTExIDMuNDEzMzMzIDcuMzk1NTU2IDAgNy4zOTU1NTYtNC41NTExMTF6TTIwMi41MjQ0NDQgMjk5LjIzNTU1NmgzNzcuMTczMzM0YzE0LjIyMjIyMiAwIDI2LjczNzc3OCAxMi41MTU1NTYgMjYuNzM3Nzc4IDI2LjczNzc3N3MtMTIuNTE1NTU2IDI2LjczNzc3OC0yNi43Mzc3NzggMjYuNzM3Nzc4SDIwMi41MjQ0NDRjLTE0LjIyMjIyMiAwLTI2LjczNzc3OC0xMi41MTU1NTYtMjYuNzM3Nzc3LTI2LjczNzc3OHMxMi41MTU1NTYtMjYuNzM3Nzc4IDI2LjczNzc3Ny0yNi43Mzc3Nzd6IG0xOTcuOTczMzM0IDQ2Ny4wNTc3NzdIMjAyLjUyNDQ0NGMtMTQuMjIyMjIyIDAtMjYuNzM3Nzc4LTEyLjUxNTU1Ni0yNi43Mzc3NzctMjYuNzM3Nzc3czEyLjUxNTU1Ni0yNi43Mzc3NzggMjYuNzM3Nzc3LTI2LjczNzc3OGgxOTYuMjY2NjY3YzE3LjYzNTU1NiAwIDMxLjI4ODg4OSAxNS45Mjg4ODkgMjcuMzA2NjY3IDMyLjk5NTU1NS0yLjI3NTU1NiAxMi41MTU1NTYtMTMuNjUzMzMzIDIwLjQ4LTI1LjYgMjAuNDh6IG0zNS44NC0yMTUuNjA4ODg5SDIwMi41MjQ0NDRjLTE0LjIyMjIyMiAwLTI2LjczNzc3OC0xMi41MTU1NTYtMjYuNzM3Nzc3LTI2LjczNzc3N3MxMi41MTU1NTYtMjYuNzM3Nzc4IDI2LjczNzc3Ny0yNi43Mzc3NzhoMjMyLjY3NTU1NmMxNy42MzU1NTYgMCAzMS4yODg4ODkgMTUuOTI4ODg5IDI3LjMwNjY2NyAzMi45OTU1NTUtMi44NDQ0NDQgMTIuNTE1NTU2LTEzLjY1MzMzMyAyMC40OC0yNi4xNjg4ODkgMjAuNDh6Ii8+PC9zdmc+;" vertex="1" parent="1">
          <mxGeometry x="400" y="402" width="20" height="20" as="geometry" />
        </mxCell>
        <mxCell id="-TJM4q__RIzKJfzwJ7_V-20" value="" style="shape=image;verticalLabelPosition=bottom;labelBackgroundColor=default;verticalAlign=top;aspect=fixed;imageAspect=0;image=data:image/svg+xml,PHN2ZyB4bWxuczp4bGluaz0iaHR0cDovL3d3dy53My5vcmcvMTk5OS94bGluayIgeG1sbnM9Imh0dHA6Ly93d3cudzMub3JnLzIwMDAvc3ZnIiBoZWlnaHQ9IjIwMCIgd2lkdGg9IjIwMCIgdmVyc2lvbj0iMS4xIiB2aWV3Qm94PSIwIDAgMTAyNCAxMDI0IiBjbGFzcz0iaWNvbiI+PHBhdGggZmlsbD0iIzJjMmMyYyIgZD0iTTUwMS45Mzc1ODIgNTQ1LjA5NzA1M2MxNDcuODkxOTYyIDAgMjY4LjIzMTM2Ni0xMTguNTM0MDU1IDI2OC4yMjMyNzQtMjY0LjI4ODkyOSAwLTE0NS43NDY3ODMtMTIwLjMzMDMwMS0yNjQuMjg5OTQtMjY4LjIyMjI2My0yNjQuMjg5OTQtMTQ3Ljg5MDk1MSAwLTI2OC4yMjEyNTIgMTE4LjU4NDYyNS0yNjguMjIxMjUyIDI2NC4yODk5NEMyMzMuNzE2MzMgNDI2LjUyMDUxOSAzNTQuMDQ2NjMxIDU0NS4wOTcwNTMgNTAxLjkzNzU4MiA1NDUuMDk3MDUzek02MTIuNDcxNDYzIDU3MC41NDY5MTEgNDExLjQ5NzE4NCA1NzAuNTQ2OTExYy0xODYuNzYwMDYzIDAtMzM4LjY2NDI0OSAxNDkuNTY5ODc1LTMzOC42NjQyNDkgMzMzLjQ3MjczM2wwIDE5Ljc5NDEwOWMwIDk2LjEzOTYzNiAxNDkuNDcyNzggOTYuMTM5NjM2IDMzOC42NjQyNDkgOTYuMTM5NjM2bDIwMC45NzQyNzggMGMxODEuNzQ3NTY1IDAgMzM4LjY5NDU5MSAwIDMzOC42OTQ1OTEtOTYuMTM5NjM2bDAtMTkuNzk0MTA5Qzk1MS4xNjQwMzEgNzIwLjE1ODI1MiA3OTkuMjM1NTcxIDU3MC41NDY5MTEgNjEyLjQ3MTQ2MyA1NzAuNTQ2OTExeiIvPjwvc3ZnPg==;" vertex="1" parent="1">
          <mxGeometry x="253.75" y="460" width="30" height="30" as="geometry" />
        </mxCell>
        <mxCell id="-TJM4q__RIzKJfzwJ7_V-21" value="" style="shape=image;verticalLabelPosition=bottom;labelBackgroundColor=default;verticalAlign=top;aspect=fixed;imageAspect=0;image=data:image/svg+xml,PHN2ZyB4bWxuczp4bGluaz0iaHR0cDovL3d3dy53My5vcmcvMTk5OS94bGluayIgeG1sbnM9Imh0dHA6Ly93d3cudzMub3JnLzIwMDAvc3ZnIiBoZWlnaHQ9IjIwMCIgd2lkdGg9IjIwMCIgdmVyc2lvbj0iMS4xIiB2aWV3Qm94PSIwIDAgMTAyNCAxMDI0IiBjbGFzcz0iaWNvbiI+PHBhdGggZmlsbD0iIzVENUQ1RCIgZD0iTTYwNy45MzQ0NDQgNDE3Ljg1Njg1M2MtNi4xNzk3NDYtNi4xNzc3LTEyLjc2Njc2OC0xMS43NDY1MzItMTkuNTU0MzU4LTE2LjkxMDEzNWwtMC4wMTIyOCAwLjAxMTI1NmMtNi45ODYxMTEtNi43MTkwMjgtMTYuNDcyMTYtMTAuODU3Mjc5LTI2LjkzMDM0OS0xMC44NTcyNzktMjEuNDY0ODcxIDAtMzguODY0MTQ2IDE3LjQwMDI5OS0zOC44NjQxNDYgMzguODY0MTQ2IDAgOS40OTczMDUgMy40MTE3MDMgMTguMTk2NDMxIDkuMDcxNjA5IDI0Ljk0NzE4MmwtMC4wMDEwMjMgMGMwLjAwMTAyMyAwLjAwMTAyMyAwLjAwMzA3IDAuMDAzMDcgMC4wMDUxMTcgMC4wMDQwOTMgMi43MTg5MjUgMy4yNDI4NTcgNS45NTM1OTUgNi4wMzg1MyA5LjU4NTMwOSA4LjI1MTk0MSAzLjY2NDQ1OSAzLjAyMTgyMyA3LjI2MTM4MSA1Ljk5NzU5OCAxMC42MjQ5ODggOS4zNjEyMDVsMy4yMDM5NzIgMy4yMDQ5OTVjNDAuMjc5Mzc5IDQwLjIyOTIzNyAyOC4yNTQ1MDcgMTA5LjUzOTgxMi0xMi4wMjQ4NzEgMTQ5LjgyMDIxNEwzNzEuMTU3NzYzIDc5Ni4zODM5NTZjLTQwLjI3ODM1NSA0MC4yMjkyMzctMTA1Ljc2MTc2NiA0MC4yMjkyMzctMTQ2LjA0MjE2NyAwbC0zLjIyOTU1NC0zLjIzMTYwMWMtNDAuMjgxNDI1LTQwLjI3ODM1NS00MC4yODE0MjUtMTA1LjgwOTg2MSAwLTE0NS45OTEwMDJsNzUuOTM1NDYtNzUuOTA5ODc3YzkuNzQyODk4LTcuNzMzMTI1IDE1Ljk5NzM0Ni0xOS42Njg5NjggMTUuOTk3MzQ2LTMzLjA3MjIzMyAwLTIzLjMxMjk2Mi0xOC44OTg0MTktNDIuMjExMzgxLTQyLjIxMTM4MS00Mi4yMTEzODEtOC43OTczNjMgMC0xNi45NjMzNDcgMi42OTMzNDItMjMuNzI1MzU0IDcuMjk3MTk3LTAuMDIxNDg5LTAuMDQ1MDI1LTAuMDQ0MDAyLTAuMDg4MDA0LTAuMDY2NTE1LTAuMTM0MDUzbC0wLjgwOTQzNSAwLjc1NzI0N2MtMi45ODkwNzcgMi4xNDg5NDMtNS42OTE2MjkgNC42NjkzNDYtOC4wMjU3OTEgNy41MTAwNDRsLTc4LjkxMzI4MSA3My44NDE3NzVjLTc0LjE3ODQ0MyA3NC4yMjk2MDgtNzQuMTc4NDQzIDE5NS42MzI2MDkgMCAyNjkuNzU4ODYzbDMuMjAzOTcyIDMuMjAyOTQ4Yzc0LjE3ODQ0MyA3NC4xMjcyNzggMTk1LjUyOTI1NSA3NC4xMjcyNzggMjY5LjcwNzY5OCAwbDE3MS44Mjk0ODQtMTcxLjg4MDY0OWM3NC4wNzYxMTItNzQuMTc0MzUgODAuMzU3MTY2LTE5MS4xODQyOTcgNi4yODIwNzctMjY1LjMxMTU3NUw2MDcuOTM0NDQ0IDQxNy44NTY4NTN6Ii8+PHBhdGggZmlsbD0iIzVENUQ1RCIgZD0iTTg1NS42MTk1NyAxNjUuODA0MjU3bC0zLjIwMzk3Mi0zLjIwMzk3MmMtNzQuMTc3NDItNzQuMTc4NDQzLTE5NS41MjgyMzItNzQuMTc4NDQzLTI2OS43MDY2NzUgMEw0MTAuODc5NDQgMzM0LjQ3OTkxMWMtNzQuMTc4NDQzIDc0LjE3ODQ0My03OC4yNjM0ODEgMTgxLjI5NjA4OS00LjA4NTAzOCAyNTUuNTIyNjI4bDMuMTUyODA2IDMuMTA0NzExYzMuMzY4NzI0IDMuMzY3NzAxIDYuODY1MzYxIDYuNTQzMDIgMTAuNDM0NjUzIDkuNTg4Mzc5IDIuNTgzODQ4IDIuODg1NzIzIDUuNjE4OTc0IDUuMzU1OTg1IDguOTkyODE1IDcuMzA5NDc2IDAuMDI1NTgzIDAuMDIwNDY2IDAuMDUyMTg5IDAuMDQxOTU2IDAuMDc3NzcxIDAuMDYyNDIybDAuMDExMjU2LTAuMDEwMjMzYzUuMzc3NDc0IDMuMDkyNDMxIDExLjYwODM4NiA0Ljg3MDkzOCAxOC4yNTc4MjkgNC44NzA5MzggMjAuMjYzNTA5IDAgMzYuNjg5NjItMTYuNDI4MTU4IDM2LjY4OTYyLTM2LjY4OTYyIDAtNS43MTkyNTgtMS4zMDk4MzItMTEuMTMyNTQ4LTMuNjQ1MDE3LTE1Ljk1ODQ2bDAgMGMtNC44NTA0NzEtMTAuODkxMDQ4LTEzLjkzMDI2Ny0xNy41MjEwNDktMjAuMjEwMjk3LTIzLjgwMjEwMmwtMy4xNTM4My0zLjEwMjY2NGMtNDAuMjc4MzU1LTQwLjI3ODM1NS0yNC45ODI5OTgtOTguNzk2MTIgMTUuMjk1MzU4LTEzOS4wNzQ0NzZsMTcxLjkzMDc5MS0xNzEuODMwNTA3YzQwLjE3OTA5NS00MC4yODA0MDIgMTA1LjY4NTAxOC00MC4yODA0MDIgMTQ1Ljk2NTQxOSAwbDMuMjA2MDE4IDMuMTUyODA2YzQwLjI3OTM3OSA0MC4yODE0MjUgNDAuMjc5Mzc5IDEwNS44Mzg1MTMgMCAxNDYuMDY3NzVsLTc1LjY4Njc5NiA3NS43Mzc5NjJjLTEwLjI5NjUwNyA3LjYyODc0OC0xNi45NzM1OCAxOS44NjU0NDMtMTYuOTczNTggMzMuNjYyNjgxIDAgMjMuMTIzNjUgMTguNzQ1OTQ2IDQxLjg3MDYyIDQxLjg3MDYyIDQxLjg3MDYyIDguMDQ4MzAzIDAgMTUuNTYzNDY0LTIuMjc1ODMzIDIxLjk0NDgwMS02LjIxMTQ2OSAwLjA0ODA5NSAwLjA4MTg2NCAwLjA5MzEyMSAwLjE1NzU4OSAwLjE0MTIxNiAwLjI0MDQ3N2wxLjE3MzczMi0xLjA4MzY4MWMzLjYxNjM2NC0yLjQyMTE0MiA2LjgyODUyMi01LjM5Mzg0NyA5LjUyOTAyNy04Ljc5MjI0N2w3OS43NjY3MTgtNzMuNjAzMzQ1QzkyOS43OTgwMTMgMzYxLjMzNDUzNSA5MjkuNzk4MDEzIDIzOS45ODE2NzYgODU1LjYxOTU3IDE2NS44MDQyNTd6Ii8+PC9zdmc+;rotation=45;" vertex="1" parent="1">
          <mxGeometry x="305" y="372" width="20" height="20" as="geometry" />
        </mxCell>
        <mxCell id="-TJM4q__RIzKJfzwJ7_V-23" value="" style="shape=image;verticalLabelPosition=bottom;labelBackgroundColor=default;verticalAlign=top;aspect=fixed;imageAspect=0;image=data:image/png,iVBORw0KGgoAAAANSUhEUgAAAJsAAACECAYAAACH4VnCAAAAAXNSR0IArs4c6QAAAARnQU1BAACxjwv8YQUAAAAJcEhZcwAAFxEAABcRAcom8z8AACAxSURBVHhe7Z0HtF5FtcdBlKfvgSI8EKVJExDUBShSxCjNkOSGFkilqrD0URcs+qM9LBRpolJEDUUjTRQQCAhShFAk9N5bIEAgBEJCILzf77DncL5zv++SwL3f/b57z15rrzlnZs/Mntn/MzNnzsyceSrqPhowYMDHOzo6lt18882/tcUWW4zGPQT+PXwd98/ivg1Ph1+Gn8HvEdx74Es222yzn3I/Ysstt1xv6NChK2288cb/FclWVNE882y99dbzA5R1AMnu8B/gG7mftNVWW727zTbbvEv4u8OGDXvXe0D0LuEZe11kw5U1jtfITIFvh39LemPg5c0rsq2oP5GtFy3RLgDlHwBiRhFcZWDNLRfBJ0dar+COB3QHc71aqFFRXyZA8B2MfgoGf9QWK4EhANEjbNol8D2H/xm4Gw0cOPA/QrWK+gph3DUw7ljcNzW4QOsKYIbJgkTZIifQlP3lOWkVlTM+rdzbyNrabRlqVtTOZHeJgX+BUV+0m+wKCIYJguHDh2eAAAQz4Rfgh+BbkbkK90L4d/Dp8Dj8/g5fz/UduI/BL8GzzUs2nUZ56h86zQKk24fKFbUb2T0BgD0w5OMCyBankcELLc2b+E2Ez+X6YMIG4b+4aa255pqfOPTQQz8WyRdpXmTm23nnnT/Bm+wnibMc8UcQ/xjcK+CnUhfaqNUT3Mjfbh6RZkXtQkOHDv0yhj1f4wqksnFl/W1VuLb1slU6HNe30sUimY9MgoeWdQVeRLYi3XNIf3ICdhF0ocdtTrtE1IragTDaMAz5SHRPuUETp1aG6yfgX8ODAeeCEb1HCX1WJr/9cP8F8GarRwDPubudQqyiVieMtgBG+w1geqteaybwBCBGfRU+Dl4+ojadRo8e/Wny3wS9TkMvX1qGRlBFrU6DBw/+LAY7XzDZciWAJY6WbDYGHgevE9FanhwD0gVviO4D0XuR8K6otwhjLIQxMqDZeiWAyak14/o2x02I1xvgtySh+4rofS08neuZuBMpw7oRXFGzCQMsyRM/vh7QCmOzc3mbXDKitA1RroNGjhyZlUMeMWKEZflb9cbaCzR8+PClqPwJMcCuAVqA7A14r3Y1DmA7J8qRseNQ/O7G7zMhUlEzKLrOK6KLrOEA38NcbxDibUkAa3vLZ3ls2Wzl8Dvz0EMPraZHmkmA7bRGQMMwz3V0dKwdom1LMSm9P+V6jDJNg6+kfEtHcEXNIAzwI5/0ctdpN4PfFIA4KET7BA0aNGhxyjzAN+7wqqgZBJCcBni1PI8W99PgYSFaUUUfnrbffvtPAqYJ5e4zWrlp8PAQrai/kp+C4C+4+sJvlnQJa8pe01J9Ef/PMRaZL8QbEsDavV73KfhI75gQ6xfkcnPq7mjKfzN1cjp1uXoE9T+iIhYCFGAgW/lwHe798NPwVAESgJnK/ZO4d8F/49q1/ps6RolkchKUyDxW7j59IcC9Hv+FQ7RfEGXeL72pxsP2HKD7ZgT3DwIU61IRp8IPwrNShQgSW6XUMsnp3jDlZOLMCAD6jXPd1OLhd2KE5xzAm9oX3jznhlzmRH2Md1lSqotYonTenPQQbU8Y/isU+jT4VUEhEMrd3ZxwAp8ApfKm43cB7h64LxqW5BJYCds/VOhPNC/l/lPx4Yu6eQ336yHT98ixA4U8HM5WwRYB0YhTy1YvrMimJejqyeuPe/OQIUP+M1TpVwTYRpbrJcD3yxDpWwQYVqVwV9sSRZfWia0Mw6wIAeK1IEpA0l/WvwyoYhplP+NT4f12GTV1twDlv7VY71EnkwcPHrxiiPUNYmzWAQgecazQCAzxpMmPw1fb9CN7PNf7Bbtw8WL4X/BTCZTG5b4hC1LSchXHQqFOvyTq4gfU2exUL9ohWvzDQqT9CSPvQyFnRMFqWMCE/yPwkfBQgPFBixTn5dV9JSprW+Tdef6E6dQDnRVqGNe7RNx+S9TDwtTDnUU7xIP4gNNJIda+RIF8mpLBc05PFe7z3P8Ud5mIMtfk1AdpHE0aUyLNPB9bPirz3lGjRlWfbiDqZE9tkeoo3LdpENr7kx1GHkJhptUDWoDgMp6or4b4RyZau2+S/qWmb3cdXfZr+A0MkX5P1MViqSdI9ogpkcNDpP2ILm1VDP10scmWBUK0Pif3xCEqbo8jn+3gi8jjPNy2XjbUEwTYxhXBpj1o2cbjtt+5Iu+++67zOmMLA/4aoFGwvjMgbUPCFrsXG4F4K/VQm7Zbnexa+O+i+FuCKxXIa8GHe2KIVdRLBLgcbsxI9tGN6y1CpD1ot912cwHf5cUnR/Ye/9+7EiNEK+olwg6LwP8u2iiuTwiR9iAUHsqT4zkUNQXhyZnIOKFfffxuZWIoU7NyOV7YxkdwexAKn1MsRDTR78DbhkhFLUDYYw8bBO1TaBBuapvjuGi5lgBsLl3JwWYhfNOptpO1FmGjMdhndhFsuPfidlqu1ZIEqL5ffFpSIbjfOUQqahHCTpvSMMxMDYNTIdy7fnCVEGld8jQdlL44npCMoyAv4a4aYhW1CAGutQCWO7ByW3Hv4tTWP2oiPhk9UJwsdOxmF1od69R6hJ1WAFgvJ7BFb+TZJpuGSOtSR0fHqij6XBFssRr0+BCpqIWIHugz2qsItuiVRodI6xIt2Poo+kZR+bjeM0QqaiGK+dBnyo0D7o4h0rqEkgMFWDTHmUth3oI3C5GKWoicXK8HNuw2KkRak2jVvojiZ5dfDvCb2q+3jLUw1QNb9ET3A7gdsFtTTtacY0Kx1VDsGNg3zlzppLhg684lRBV1HwXYJhXBJnuv7eCbuN/RsV1E6R1CSb+t/RxlJvnGWQaaHGB7GeWXiGgVtRDFmK3TEjDZIZD+AcQJtHK984GezLcASNlH3PJTIauo/vEmekmDo9kragHCXkdqR7leg5FAx/VMrk/Ebc4SJDMiw+PMOBSoq1iEudT7KPjzEb2iFiS3NdIg7ISdroKn20vVa0AEYnyovxvu2Rc+x12A6W5bq/ITIMhUUH+u3cF0IAp9KaJW1AZEAzEfdvO0p9OwXda11mvp9MfGbyBzENG6v8ciYX8q8VC0WDUsyMLfP5xsh2x1OnWbkzMLAMrx+Cu2ZjYmyd6yINTuyJ3QrV+GSNy1ac+WgaYCgXJ/3HoEmS8aUSrqIxSbh/4Czy53rQJO+2P707tlHwkJbU+CM8oZCTQRz/WlKPTlEK+oD5ItFy2Ye3On1mtwYhx3Uoh/OCID/6/5WjmD1IRyfdpGG21UnUDdTwhAbQIeHotGpgYP0cJ9uCVknvtAwg/UQzKJzwaIh1XTGf2PeElcAQxcX8aFjQ/+/sJy7o4h8whzwHRBGcECzURB8MEhWlE/JDDg8Q3XxAf7nAOAHuGwQoh+MAGmXW0aBVdKyOvom48NsYr6MdEYLQVGOs1OCEDCzpqjXg9QLUOkZ8qJxP043PbbLV1RjxANzzoArmbtYvR+M/DfJsQaE6g8tQHQriasXx81VVFnAnBjAJj/q6/BC/7/7hIvCPgfyzftQlPE6E6dLf5WiFVUUU5xTu+48vg+AHdIiNWS3SNC1zSIVC3prqghgY8vgZXsUMaEm3iRfAr8dP6NEW8Q6yFU06pFhEe5br+DRipqKtFl7ha9YI6faKh2DZH3icBfGpgEY6Dnm8W+IVJRRQ0JrHwK3NxebN0CTxNqDssGUC7nrtnB7jV+T7fjz10r6h0CN/uUGyxd8PX+aZZ47ioii02gYzeE2us0m4p6lWy0wM6TRcDF9W9DJAPbhcUXg+h7p/jFP0QqqmiOCNycJMBSw+U1PeQ92cYZ0Oifhe8rojG+FNzQNifZVNQyBH6GwflBNTE0mwaeVjHwa7Bry3OwBRo/2pKRivolgaPlwNDU4vg/Gq9tBNsuxS5U0BHwThZYUUVzSXGw0A3Ft1KvwdPpTsiNLQbEW+hUQPeh/0fQF8hz5EaMGPE56mIV6mI9xhxDGXLsAO9NPf0ffgcQtjPew7j27OCvEbZUT5x83m5EvRxTHJZFA3anAeOLTV6g8KH++CMxKmg+yr4W9bE77mXUxyuwn+pmwp6amT2M1pGu94T7Wx6Pl/BPgP7++zb4f7kf0F/PDabsu9bpLV+wG70tKq0Itmv60QmR8/JgfYMyH0T5r6Eusg0ePpkCKoHqgzjJWn9R0W/CNxL2E/zX978MkV+fJ+pyTBFswbMMeMLKSp7xcnA2ceZ9L2rfJcrpjrFzcKcLkgSwVBf1uAiweuGJTcf0ZO5nwZeSzyZk2+frleFEh/VZrA/Zlu31ooeVQ0X+POL1SQIIq1PWMyhn9kPdDwCPB+O9DdtVZm/tcoBSP/lt5Qpxalj5AN1M+Hy4T/9tBrB9xzop16lgs7nPPaL5a9//F3VBDOZXohI8PuCVciuWQBT3Aucdr5H3zdzx2Ou405C5EHcnXP9h745/wxzXCTjjGi8DnukV8/A6dbGEnUWcNUO1PkWUawBlnFWoz4wF22NFT40AMk+LeH2GANpGlC/7z2kRAKnMuLZQL8BvcS1Y8pYqwmcRJsAWiyQ/Rj3tQN09GOGJU1xB9wxxXjW8WMdex/r9l0hjN9N6L8m+Qb65l+okY8HmIDb3UIgK+itx+kwFUK594JfLFZDGaVxPgHeHr6MucpDJAZTnqJO6Z1sQtiJyN5cHxAKaOJ6J4dHvf4TfibRyGfOPsc0fkOszpwhQnh3L9UH5JmffRYtPuoUnYIJHKUXctiWMuwDlO1kjFwesGhy2e3wGd1/CFuX6RGUMS3IBjocJ6/LkbOSWRv7qNP5L8SPPc51Gwn8Q177tvlGU8ToMc+1c7UpqYaIs+xXBFg/eLQb8pmiIuH6cV/W2nmejcKtQyH+WWxOZe7u4WwFBtooU2f3LclaWFQQA5ug4/YEDBy5K/JoFDSkd3DNCzIf7bO6nFmVk5dD3EbrV9UO0bYl6q5nUjcbsAsF2WDkA4dcBXdseqYDBPBTlgfK+Rtg3yxdxPWD6RWROQtYvAvmB03IA5AZbrEhyjsgWjHg1+20FcDzAJ5D3ceTjuSgvc++G3uwlJHHEa/sjYSnfhUVMWX7r2idt82KAlRMV/+OI21Y0ePDgz6L7lWWDRxnfgP0qkK1KsBIsq9dUUCbrPdeuLp0roCUyf+JfUgRvqtNifvg75ZT9WaUoq97Ev4frtjzTjjL6K6nJ8YDlZeIB+h9btiUJfL4ciHt+xG8rQu+av8wFkByf3c599nUghaXw4jU8g9Zuq0juQxFprQ1PKoKozNZ35OeZta/UAdyFyHwqkmwbQm+nhfJ6jesZPLxrZFux8LyiaAQrgkgPjR49uq2eLnT+YaHlyFzLhXuo4fhtQPi1RZk67Nvow/BFpHcIPATwLTVq1KjPxjg2f0v32yct5md4ar9Aen6M3wvX+TPfQrNvqZFmDdvKooNvuB7EYv2PQDb/f5TxoiU+tc0+G/rn7D8VsRTluC1/cBA4ID1pqbCwlfX+2vEWJwz+bfR9yXKkgsaY7YIQyQi5BSnv/vjXrOErska3woyPrPNuj8MPwvdyfweuH9sncm139wDuY/DrxpGLOpQ56vaPAPgroVJGxD8oHoxMTh0inb1CpOUJXe0lnyyWX7BRpmNC5L1tfBS+065m/C5uh5OK0HV+Cnl18YUgnqhb4U4bdiiXf6F5PbUkstfF8hf9rTzZNMucwoppJTa9YsV7rxy6djpaKjb71rQKEdfxz0oh1tKErttRvnye0vJSpnd4wDcKkfwA34lWXlEQ108OHSHWsoTuI9Ez77bCSI/Wm7awW0J+fLGswX56miVgDUvgS2nOCStrPOObjvfk9Qxh+TJpdQPsD9r1hko5IbsIMtcWdYvWruVXTaPzAuh/S/Hh8hq/Ozut8SPwB6mCk7CFRviqVl4QiOEWQsebkoEsA64fzkeGSA0R/k3CnNopVsj9GH91yt6B39Hcj4cnWRemp4xsHmVOYcpF3i8S90rcE9BtFGmszPVVyppfSpPruj8iI+6acPmXjK+qX4i0JKHjHtaDOif2QcH/qBB5n3gZ+DQBE1KlyFaMTKUND7GWI/Tb2UKqpzqrP+W4vFH3T1g2NkpljPLuF8EZOfB36oNybwj7qeso4p0C/wm+DL4Bv6twz4NPh48l/wPwG4j8F9Gn5i2SFnZLQJPPqYURxhFUd7mR6RXtEPJjI7jlyDKj58NFsMW147f6QwAqbLhPUjKcHMa7ZcyYMS3XuqHfYnC+M0y9YacuvhciNSQIKIuTtZl8tB4v4dejR+iTn79ZvCMZI/J9mdaqriEog8eWPV6Sd9VJSx7ug25HFx9gWd3Rd/8Q6Uxu3UPgqmLEKOhbojfEWobQNWu608MRLYCz1/OFSA1RFtex5UtfQv4cgnp8QSP5ZX9RMV/zV2/02T2COxH1vWe5bLh/jOCWIXTaGM67fdlyov8d9pYhVp8o3CAiZqeDW9AwyN2ttp4+3t6uLLVS0/EbECKdiLBDLVeSp3w+RB9pAndOiTy/Ab+WjBJ6X9OoXp3XQ99bk7663D+Lu2yI9Dqhj6cXPZ5sIIsZ2DfQOfs5Lon8iAjZOiwTI+LQCGoZsgtCzxdKxriMoEat1LzI3ZgqJuI9TzmbtYvMydsbk76CDn39IP+NCO9EPAh7J301InGcVmiJPxxTjkUtTxFocjROV8/VBncirAOPhJcPr5YiDPF9CpxPKUShXYhYlwhzfPdIMna410dwU4j8jkr5qzcseLaO4E5E3a9F+PRUxuhK5+y82h6kTTbZxAOcLw19cg4buGC0T61A9rPI2FTY6Jqm4DZcDkS43Vj+4/0weufX8h4k8tuY/GveSgHS3hHciWKG4JbUeoTunne8eIg0nai3JdDjr+qUHgLZ+uT+LXqcYSHabaSxv0TivbKRmcJ9Hn42AUej0dJd1tV2OXTdCtmaiV/K0NRd/xhoafJ8OrVuMfF7SgTXJcKPTw+VulvmZuudCB02QId7yy1a0stuP0S7h6ioRUn0PBKfQkauCTue+6UiuClEfoMsoGxhfcrw6/LQQuT2KhltNk9hU09pQkcP8cnHOboA5/IBAwY0fPlC182Rzd+gBSrpnBrBTSPy/jE6vJ50T6xeUY7jQrR7iETdMX6KT6SFls2IDB8g4+2atUKB/Hb2SbKg8aR7POuGEVyXkDkpfTs1Dm6Pz6/VId+gz0+gDz38wJ820XQigOVBjfkSsKjvCyO4x4kH8gvkeyR5vp10SGz9jxgxwvq/DL0WiCjdQ07skvD9FriYaQIeYf69bY0Q7zEin0NKYHPl62oR3IlimiQbZyR9ub9jyJAh/x0iTSPyPyGBXv1x3+zo6Gg4neHUCDL5BK9ARfdrIrjHSJ3I52DyzL4MxIORs/dRn5cSvnBE6z7CaB9HgQtTZRXZiovMNfxpKLNuROt2Iv3fFIGD+6xPYAR3olhokH/gDvfa3vjmix5HlMAmeLpsYQnPvz6oO/e3dOs/Pt+nbCyujtjvEfMy36Rn4oLfL6zbiNv9hCK+jj/pE1ZGu1xAvMuePdrAfyt067m8pJm3UubHvYfNnUmXcwbu70r8W+Rc0Dg56RtxXLx4puFwOU5Psd9Xb096FMB2Puw31hp5wlJ5skUByka57+mu1kSwoI//FN0NvoC8siXdCdxFVocYAjwJN2e+j0xdyXAmPMvCp4ooshVqGMq7U9wx3d/ho+Gt4dXgxWiNFozJv7n5XFQzOZvYytGvEZd19L6eXE9zAlqR50b3AMFjXXW9iZBdOHF0i2uR1iDc7Xkw98Y9mbRcVDBNEJmX+tWrq6Qj1/8gXrPHutnglXw3z44jl8tKFhVNhcHPiUw3nvg2657Ma3H/TFq2PmNxf4xcw3kkwlw3dWek1e/YuqT8k6inmpW+RYpNN7bo1nHi1/B7E86OiUiNgVzvAZCT7cK29+G3F/n23i+lUH4ReH+UeUClG3WviS2A4XIqSCq0HM30uVzX/Zgeix9vVbaYbkqrEZtvUb5Ykc3ksh5yPbkiF+N4j/skfitGlXQi6ufnyQ5lNq3EKc16bD5Rxw8CsH0B8BKRfO+Tb3YU4PsU9CoUfFNFVTgVsFiQrtg4pDGTAjZ8wSB8fIAyS5t79wk8iHs//ECJ74+wfCd6uC7ZecjwkGsGu2fBucm8vPjZ0jwC31eSlZNur6c4UT+Wqe50iQ+paQUo55i1UwJYAhm8H9y6m56cxadi1qNCfoWiVuJ0CyI4iuArVniRDSeuJz12tXpjbFRIqnx/GLI6AF2qHpOX68MuKsbBvQv28Ool68XpCSYvv3yclR6UKOtjXK/RlR7I3JnAYxm4/3cXE8G+Ud6U8iiz9W6+smkqZ5r4e5rVQ/CpXG9rnUV67UH+P56CD0DxfXHHwXdTGN9SZ1tQC1nmmCS8oavFmoTnH7TDYL5BdTlgRvbYNOUQcf0nV8PJ1J4i8sx3zKsHuruMqMv9ocg+lMobcbtcQECa21DnMxOQioy/eTp2e4F03DX2T/hn1OOGvrBFEu1PFOrzFOrrFPRbFHoj3M3w2w53V3gP2C12R+KuElHqEjJ7CTIrLsBmN7NeBNcl4uwnkHFTq/re2fxNJPJzQ0u+Rk3j4ze+K7Ahszgyz5TiXBLBDQlZ98h6MtNesO52tJIdAOq7xPfc4FWph+W6+lRWEURljUxgC3YlxY4RXJeQcTPLWylOxO8SoN1N5Lccuufzfba0AKDLXzYR59vEyc8iEWy4Z0VwRT1NHR0dX6XCa5Z3Y7QuDYDsMsjkKy508TsggptC5Ds4gUbd43q7CK5LyB0cAMvihN7du7qiosYU3wuvT0bQADz9fj/s6vXcyeDsCK0UB/dffoKL8B4n8vtF5JuA5vq6hlv00NXN15enMZ5gw3XJfsM5top6gKj0w4vfaDUe3OU6LwyXnxsWxn6NMUxT9mP6gJB/zVsl7l24DVdLILsSMnm3a1zSqP1/Z0U9T1T+BvCMZAiNhyF+F8F1iZbhe8hmx0zIYfCaPaM9Rei2Fpwf+SBwPmi8Rvi26eGQ4+E6MoIrahZhCHfC352MoRG5nwQ33DOx0047eajMxNS6RPd0YzP2xJLP4UnX6A5rz8AokcuikLkg6RogdbK77p7YinqYqPxfF5/8uD46gusShj4ijYFkjOgPMXp09xh5LgPI89N91JP7CV0tcUJuMPHyY7QizqOksWiIVNRMwhjOGeUG0Zj4vcCYZuUQ6US0Jp71kX3VKBjxEty632K7g8gnb9VkwU6eh0RwJ3JyFbn8ZUaO65+GSEW9QP6LIP/8k4yCIX8V4Z0odv1fkuIIOgDqkQ2dlpXH7iaX5XyP8K3gHbjflXh+M9yTe78FbwNvSjrrAvZOa8wAvieJP5VatXDt7hsu0zHd0CuPg/wTlO1DHb1aUTcRRlgTo7yUWqpwXVLTcHk6YRsTJ5vgNU60Gn9xzRfx1ydNv2S4kNAP4a489rvhbNNW1oG6YE15IuO33FdJz4/XF8MHcr8JIFmW63y6Q/YaMB0WqnQiZBYjbqdDWojT5YaeippEGDn7L3kyTlxf3mhMRPh8GO/PqXUL0LnOzjPaMuOahiygZGUSOBMnvyST4unqD2j8/jgjxQsATfQY+1ClTPMiW68sd7mqJmQq6k3CqMvDk8KYuZEA1KmN9pIiMxqA5F8hEmjSfWLvEydQFbkYXo6XwtO9OqHnT0KFTsRYzW+++S5/XctEnB+GSEWtQBjkAI1ZNi6AOzBEMsJvfsJGIXNXkq3HqZVKgCH9rKsk7Hlc1+A/C0/hOvvRnHLGKQK+zKYD29r9Gr1q9tqSziak4ZbEXD7m1a4nzbY7NbxPU2wzzBdVygEUD2rO5rMw8Ppc+4+CbIlTkisz6dil3onsWNxdkP8qfp4AsBwAXJq4SwgW3GXxW5HwVZEbgczJ+N/Idd5illmdQkcXbv7QXVKk45eCJ4o6KUMaD5p3VsCKWoswjhtxHrVFSkYLA3rYycHwC7YWRSBo/GRkwpOff4L5UDu8ib8P6eXjNNM0ffPxPrFgIsw/Af4Ezg8olJUn/lP4rxXJVtSKhJH81eO0BCBZQ2t8jHcn9694LYeB7Qrv8D7Jey3gaKWOnpsTg4i7D/FqWjXzJv0n4Enml/ImbCp+/gjkjbKuuJ4JPCSSraiVCUON0bBhuIzDyO7qcqzmVImtz1+d5MXP5do3lrvgAMGxc7IhGGD6d7+a7jnA5c/PvkJ6Lou6CNcxntMpEwnL9xbI5mkc9N81kq2oHQiDZS8MReOHYW15psBnF1epcr8yfHcRcMpH/HGAsu75t05JEP5LgSKnuOaNO5k0vh2iGXF/EP7uo6356Yf5GAdgNpyDq6iFCYA4vfFsGD5nQYGhXwGQ4zBuvosLf5dK31dcuiQgjI/rxpQRIZoR8d3tf3uE53Eiv5cJ3zRE7WKXhA8kj4eULcvjb4vXlj+nqygIg/uF4bbyi4HX0Yq5effk1HJxLyiyQ6zLgMB1LOWusbVxD4I7HSEV9/52KPshLi2WpzS6DyA7kKfY0sohPxn5un9qrqjNCGMKoHM1dNnYtnJhcP/E8nsA5hzcGhj/dNzsiNHESZawt702rRRmWty7guQ6eG1azO8gdwTX2QaXJKucbPx4AO523BiqVtQXCJC4eddu7DkBo7GT4WXBUGjN/AHtJbi+vc7i2oOW/Rmt31zdlWULN51r/12a+XPvGMyJ3iu4dv/lTPMJIOds+uE3E3Z7Y/PPzaioOdTR0eG47ET4JcFVBp1g0E/2GjAINkHml4PJuK/iOr56DfavzJN08ZuBm8Urt2Ky94Is/C+l5WubPx5W9BEJg38Nw58OTxV09QCSWP8iN/Irs/6CrwBqu9hhgG7+UKOi/kS0SG6Y/hWu52e8lbrTAMdcswBL3SfXfonwoOnzuN62FX/JVFEvEIP0BenaNgQwP4M9kuBlQScLHEEoAAVTApX3+svKxJSJLwm3ktaphG9Jup6I2fL/bK2oF4kWyeM+NwVUOwMej4Two/w1sPNtjs9c+3Yz/v6Z7ziuXR60Je4a1ZEG9Wieef4fY0kTi+bDw0EAAAAASUVORK5CYII=;" vertex="1" parent="1">
          <mxGeometry x="230" y="580" width="77.5" height="66" as="geometry" />
        </mxCell>
        <mxCell id="-TJM4q__RIzKJfzwJ7_V-25" value="" style="whiteSpace=wrap;html=1;aspect=fixed;" vertex="1" parent="1">
          <mxGeometry x="325" y="372" width="20" height="20" as="geometry" />
        </mxCell>
        <mxCell id="-TJM4q__RIzKJfzwJ7_V-26" value="" style="shape=image;verticalLabelPosition=bottom;labelBackgroundColor=default;verticalAlign=top;aspect=fixed;imageAspect=0;image=data:image/svg+xml,PHN2ZyB4bWxuczp4bGluaz0iaHR0cDovL3d3dy53My5vcmcvMTk5OS94bGluayIgeG1sbnM9Imh0dHA6Ly93d3cudzMub3JnLzIwMDAvc3ZnIiBoZWlnaHQ9IjIwMCIgd2lkdGg9IjIwMCIgdmVyc2lvbj0iMS4xIiB2aWV3Qm94PSIwIDAgMTAyNCAxMDI0IiBjbGFzcz0iaWNvbiI+PHBhdGggZmlsbD0iIzVENUQ1RCIgZD0iTTYwNy45MzQ0NDQgNDE3Ljg1Njg1M2MtNi4xNzk3NDYtNi4xNzc3LTEyLjc2Njc2OC0xMS43NDY1MzItMTkuNTU0MzU4LTE2LjkxMDEzNWwtMC4wMTIyOCAwLjAxMTI1NmMtNi45ODYxMTEtNi43MTkwMjgtMTYuNDcyMTYtMTAuODU3Mjc5LTI2LjkzMDM0OS0xMC44NTcyNzktMjEuNDY0ODcxIDAtMzguODY0MTQ2IDE3LjQwMDI5OS0zOC44NjQxNDYgMzguODY0MTQ2IDAgOS40OTczMDUgMy40MTE3MDMgMTguMTk2NDMxIDkuMDcxNjA5IDI0Ljk0NzE4MmwtMC4wMDEwMjMgMGMwLjAwMTAyMyAwLjAwMTAyMyAwLjAwMzA3IDAuMDAzMDcgMC4wMDUxMTcgMC4wMDQwOTMgMi43MTg5MjUgMy4yNDI4NTcgNS45NTM1OTUgNi4wMzg1MyA5LjU4NTMwOSA4LjI1MTk0MSAzLjY2NDQ1OSAzLjAyMTgyMyA3LjI2MTM4MSA1Ljk5NzU5OCAxMC42MjQ5ODggOS4zNjEyMDVsMy4yMDM5NzIgMy4yMDQ5OTVjNDAuMjc5Mzc5IDQwLjIyOTIzNyAyOC4yNTQ1MDcgMTA5LjUzOTgxMi0xMi4wMjQ4NzEgMTQ5LjgyMDIxNEwzNzEuMTU3NzYzIDc5Ni4zODM5NTZjLTQwLjI3ODM1NSA0MC4yMjkyMzctMTA1Ljc2MTc2NiA0MC4yMjkyMzctMTQ2LjA0MjE2NyAwbC0zLjIyOTU1NC0zLjIzMTYwMWMtNDAuMjgxNDI1LTQwLjI3ODM1NS00MC4yODE0MjUtMTA1LjgwOTg2MSAwLTE0NS45OTEwMDJsNzUuOTM1NDYtNzUuOTA5ODc3YzkuNzQyODk4LTcuNzMzMTI1IDE1Ljk5NzM0Ni0xOS42Njg5NjggMTUuOTk3MzQ2LTMzLjA3MjIzMyAwLTIzLjMxMjk2Mi0xOC44OTg0MTktNDIuMjExMzgxLTQyLjIxMTM4MS00Mi4yMTEzODEtOC43OTczNjMgMC0xNi45NjMzNDcgMi42OTMzNDItMjMuNzI1MzU0IDcuMjk3MTk3LTAuMDIxNDg5LTAuMDQ1MDI1LTAuMDQ0MDAyLTAuMDg4MDA0LTAuMDY2NTE1LTAuMTM0MDUzbC0wLjgwOTQzNSAwLjc1NzI0N2MtMi45ODkwNzcgMi4xNDg5NDMtNS42OTE2MjkgNC42NjkzNDYtOC4wMjU3OTEgNy41MTAwNDRsLTc4LjkxMzI4MSA3My44NDE3NzVjLTc0LjE3ODQ0MyA3NC4yMjk2MDgtNzQuMTc4NDQzIDE5NS42MzI2MDkgMCAyNjkuNzU4ODYzbDMuMjAzOTcyIDMuMjAyOTQ4Yzc0LjE3ODQ0MyA3NC4xMjcyNzggMTk1LjUyOTI1NSA3NC4xMjcyNzggMjY5LjcwNzY5OCAwbDE3MS44Mjk0ODQtMTcxLjg4MDY0OWM3NC4wNzYxMTItNzQuMTc0MzUgODAuMzU3MTY2LTE5MS4xODQyOTcgNi4yODIwNzctMjY1LjMxMTU3NUw2MDcuOTM0NDQ0IDQxNy44NTY4NTN6Ii8+PHBhdGggZmlsbD0iIzVENUQ1RCIgZD0iTTg1NS42MTk1NyAxNjUuODA0MjU3bC0zLjIwMzk3Mi0zLjIwMzk3MmMtNzQuMTc3NDItNzQuMTc4NDQzLTE5NS41MjgyMzItNzQuMTc4NDQzLTI2OS43MDY2NzUgMEw0MTAuODc5NDQgMzM0LjQ3OTkxMWMtNzQuMTc4NDQzIDc0LjE3ODQ0My03OC4yNjM0ODEgMTgxLjI5NjA4OS00LjA4NTAzOCAyNTUuNTIyNjI4bDMuMTUyODA2IDMuMTA0NzExYzMuMzY4NzI0IDMuMzY3NzAxIDYuODY1MzYxIDYuNTQzMDIgMTAuNDM0NjUzIDkuNTg4Mzc5IDIuNTgzODQ4IDIuODg1NzIzIDUuNjE4OTc0IDUuMzU1OTg1IDguOTkyODE1IDcuMzA5NDc2IDAuMDI1NTgzIDAuMDIwNDY2IDAuMDUyMTg5IDAuMDQxOTU2IDAuMDc3NzcxIDAuMDYyNDIybDAuMDExMjU2LTAuMDEwMjMzYzUuMzc3NDc0IDMuMDkyNDMxIDExLjYwODM4NiA0Ljg3MDkzOCAxOC4yNTc4MjkgNC44NzA5MzggMjAuMjYzNTA5IDAgMzYuNjg5NjItMTYuNDI4MTU4IDM2LjY4OTYyLTM2LjY4OTYyIDAtNS43MTkyNTgtMS4zMDk4MzItMTEuMTMyNTQ4LTMuNjQ1MDE3LTE1Ljk1ODQ2bDAgMGMtNC44NTA0NzEtMTAuODkxMDQ4LTEzLjkzMDI2Ny0xNy41MjEwNDktMjAuMjEwMjk3LTIzLjgwMjEwMmwtMy4xNTM4My0zLjEwMjY2NGMtNDAuMjc4MzU1LTQwLjI3ODM1NS0yNC45ODI5OTgtOTguNzk2MTIgMTUuMjk1MzU4LTEzOS4wNzQ0NzZsMTcxLjkzMDc5MS0xNzEuODMwNTA3YzQwLjE3OTA5NS00MC4yODA0MDIgMTA1LjY4NTAxOC00MC4yODA0MDIgMTQ1Ljk2NTQxOSAwbDMuMjA2MDE4IDMuMTUyODA2YzQwLjI3OTM3OSA0MC4yODE0MjUgNDAuMjc5Mzc5IDEwNS44Mzg1MTMgMCAxNDYuMDY3NzVsLTc1LjY4Njc5NiA3NS43Mzc5NjJjLTEwLjI5NjUwNyA3LjYyODc0OC0xNi45NzM1OCAxOS44NjU0NDMtMTYuOTczNTggMzMuNjYyNjgxIDAgMjMuMTIzNjUgMTguNzQ1OTQ2IDQxLjg3MDYyIDQxLjg3MDYyIDQxLjg3MDYyIDguMDQ4MzAzIDAgMTUuNTYzNDY0LTIuMjc1ODMzIDIxLjk0NDgwMS02LjIxMTQ2OSAwLjA0ODA5NSAwLjA4MTg2NCAwLjA5MzEyMSAwLjE1NzU4OSAwLjE0MTIxNiAwLjI0MDQ3N2wxLjE3MzczMi0xLjA4MzY4MWMzLjYxNjM2NC0yLjQyMTE0MiA2LjgyODUyMi01LjM5Mzg0NyA5LjUyOTAyNy04Ljc5MjI0N2w3OS43NjY3MTgtNzMuNjAzMzQ1QzkyOS43OTgwMTMgMzYxLjMzNDUzNSA5MjkuNzk4MDEzIDIzOS45ODE2NzYgODU1LjYxOTU3IDE2NS44MDQyNTd6Ii8+PC9zdmc+;rotation=45;" vertex="1" parent="1">
          <mxGeometry x="345" y="372" width="20" height="20" as="geometry" />
        </mxCell>
        <mxCell id="-TJM4q__RIzKJfzwJ7_V-27" value="" style="whiteSpace=wrap;html=1;aspect=fixed;" vertex="1" parent="1">
          <mxGeometry x="365" y="372" width="20" height="20" as="geometry" />
        </mxCell>
        <mxCell id="-TJM4q__RIzKJfzwJ7_V-28" value="" style="shape=image;verticalLabelPosition=bottom;labelBackgroundColor=default;verticalAlign=top;aspect=fixed;imageAspect=0;image=data:image/svg+xml,PHN2ZyB4bWxuczp4bGluaz0iaHR0cDovL3d3dy53My5vcmcvMTk5OS94bGluayIgeG1sbnM9Imh0dHA6Ly93d3cudzMub3JnLzIwMDAvc3ZnIiBoZWlnaHQ9IjIwMCIgd2lkdGg9IjIwMCIgdmVyc2lvbj0iMS4xIiB2aWV3Qm94PSIwIDAgMTAyNCAxMDI0IiBjbGFzcz0iaWNvbiI+PHBhdGggZmlsbD0iIzVENUQ1RCIgZD0iTTYwNy45MzQ0NDQgNDE3Ljg1Njg1M2MtNi4xNzk3NDYtNi4xNzc3LTEyLjc2Njc2OC0xMS43NDY1MzItMTkuNTU0MzU4LTE2LjkxMDEzNWwtMC4wMTIyOCAwLjAxMTI1NmMtNi45ODYxMTEtNi43MTkwMjgtMTYuNDcyMTYtMTAuODU3Mjc5LTI2LjkzMDM0OS0xMC44NTcyNzktMjEuNDY0ODcxIDAtMzguODY0MTQ2IDE3LjQwMDI5OS0zOC44NjQxNDYgMzguODY0MTQ2IDAgOS40OTczMDUgMy40MTE3MDMgMTguMTk2NDMxIDkuMDcxNjA5IDI0Ljk0NzE4MmwtMC4wMDEwMjMgMGMwLjAwMTAyMyAwLjAwMTAyMyAwLjAwMzA3IDAuMDAzMDcgMC4wMDUxMTcgMC4wMDQwOTMgMi43MTg5MjUgMy4yNDI4NTcgNS45NTM1OTUgNi4wMzg1MyA5LjU4NTMwOSA4LjI1MTk0MSAzLjY2NDQ1OSAzLjAyMTgyMyA3LjI2MTM4MSA1Ljk5NzU5OCAxMC42MjQ5ODggOS4zNjEyMDVsMy4yMDM5NzIgMy4yMDQ5OTVjNDAuMjc5Mzc5IDQwLjIyOTIzNyAyOC4yNTQ1MDcgMTA5LjUzOTgxMi0xMi4wMjQ4NzEgMTQ5LjgyMDIxNEwzNzEuMTU3NzYzIDc5Ni4zODM5NTZjLTQwLjI3ODM1NSA0MC4yMjkyMzctMTA1Ljc2MTc2NiA0MC4yMjkyMzctMTQ2LjA0MjE2NyAwbC0zLjIyOTU1NC0zLjIzMTYwMWMtNDAuMjgxNDI1LTQwLjI3ODM1NS00MC4yODE0MjUtMTA1LjgwOTg2MSAwLTE0NS45OTEwMDJsNzUuOTM1NDYtNzUuOTA5ODc3YzkuNzQyODk4LTcuNzMzMTI1IDE1Ljk5NzM0Ni0xOS42Njg5NjggMTUuOTk3MzQ2LTMzLjA3MjIzMyAwLTIzLjMxMjk2Mi0xOC44OTg0MTktNDIuMjExMzgxLTQyLjIxMTM4MS00Mi4yMTEzODEtOC43OTczNjMgMC0xNi45NjMzNDcgMi42OTMzNDItMjMuNzI1MzU0IDcuMjk3MTk3LTAuMDIxNDg5LTAuMDQ1MDI1LTAuMDQ0MDAyLTAuMDg4MDA0LTAuMDY2NTE1LTAuMTM0MDUzbC0wLjgwOTQzNSAwLjc1NzI0N2MtMi45ODkwNzcgMi4xNDg5NDMtNS42OTE2MjkgNC42NjkzNDYtOC4wMjU3OTEgNy41MTAwNDRsLTc4LjkxMzI4MSA3My44NDE3NzVjLTc0LjE3ODQ0MyA3NC4yMjk2MDgtNzQuMTc4NDQzIDE5NS42MzI2MDkgMCAyNjkuNzU4ODYzbDMuMjAzOTcyIDMuMjAyOTQ4Yzc0LjE3ODQ0MyA3NC4xMjcyNzggMTk1LjUyOTI1NSA3NC4xMjcyNzggMjY5LjcwNzY5OCAwbDE3MS44Mjk0ODQtMTcxLjg4MDY0OWM3NC4wNzYxMTItNzQuMTc0MzUgODAuMzU3MTY2LTE5MS4xODQyOTcgNi4yODIwNzctMjY1LjMxMTU3NUw2MDcuOTM0NDQ0IDQxNy44NTY4NTN6Ii8+PHBhdGggZmlsbD0iIzVENUQ1RCIgZD0iTTg1NS42MTk1NyAxNjUuODA0MjU3bC0zLjIwMzk3Mi0zLjIwMzk3MmMtNzQuMTc3NDItNzQuMTc4NDQzLTE5NS41MjgyMzItNzQuMTc4NDQzLTI2OS43MDY2NzUgMEw0MTAuODc5NDQgMzM0LjQ3OTkxMWMtNzQuMTc4NDQzIDc0LjE3ODQ0My03OC4yNjM0ODEgMTgxLjI5NjA4OS00LjA4NTAzOCAyNTUuNTIyNjI4bDMuMTUyODA2IDMuMTA0NzExYzMuMzY4NzI0IDMuMzY3NzAxIDYuODY1MzYxIDYuNTQzMDIgMTAuNDM0NjUzIDkuNTg4Mzc5IDIuNTgzODQ4IDIuODg1NzIzIDUuNjE4OTc0IDUuMzU1OTg1IDguOTkyODE1IDcuMzA5NDc2IDAuMDI1NTgzIDAuMDIwNDY2IDAuMDUyMTg5IDAuMDQxOTU2IDAuMDc3NzcxIDAuMDYyNDIybDAuMDExMjU2LTAuMDEwMjMzYzUuMzc3NDc0IDMuMDkyNDMxIDExLjYwODM4NiA0Ljg3MDkzOCAxOC4yNTc4MjkgNC44NzA5MzggMjAuMjYzNTA5IDAgMzYuNjg5NjItMTYuNDI4MTU4IDM2LjY4OTYyLTM2LjY4OTYyIDAtNS43MTkyNTgtMS4zMDk4MzItMTEuMTMyNTQ4LTMuNjQ1MDE3LTE1Ljk1ODQ2bDAgMGMtNC44NTA0NzEtMTAuODkxMDQ4LTEzLjkzMDI2Ny0xNy41MjEwNDktMjAuMjEwMjk3LTIzLjgwMjEwMmwtMy4xNTM4My0zLjEwMjY2NGMtNDAuMjc4MzU1LTQwLjI3ODM1NS0yNC45ODI5OTgtOTguNzk2MTIgMTUuMjk1MzU4LTEzOS4wNzQ0NzZsMTcxLjkzMDc5MS0xNzEuODMwNTA3YzQwLjE3OTA5NS00MC4yODA0MDIgMTA1LjY4NTAxOC00MC4yODA0MDIgMTQ1Ljk2NTQxOSAwbDMuMjA2MDE4IDMuMTUyODA2YzQwLjI3OTM3OSA0MC4yODE0MjUgNDAuMjc5Mzc5IDEwNS44Mzg1MTMgMCAxNDYuMDY3NzVsLTc1LjY4Njc5NiA3NS43Mzc5NjJjLTEwLjI5NjUwNyA3LjYyODc0OC0xNi45NzM1OCAxOS44NjU0NDMtMTYuOTczNTggMzMuNjYyNjgxIDAgMjMuMTIzNjUgMTguNzQ1OTQ2IDQxLjg3MDYyIDQxLjg3MDYyIDQxLjg3MDYyIDguMDQ4MzAzIDAgMTUuNTYzNDY0LTIuMjc1ODMzIDIxLjk0NDgwMS02LjIxMTQ2OSAwLjA0ODA5NSAwLjA4MTg2NCAwLjA5MzEyMSAwLjE1NzU4OSAwLjE0MTIxNiAwLjI0MDQ3N2wxLjE3MzczMi0xLjA4MzY4MWMzLjYxNjM2NC0yLjQyMTE0MiA2LjgyODUyMi01LjM5Mzg0NyA5LjUyOTAyNy04Ljc5MjI0N2w3OS43NjY3MTgtNzMuNjAzMzQ1QzkyOS43OTgwMTMgMzYxLjMzNDUzNSA5MjkuNzk4MDEzIDIzOS45ODE2NzYgODU1LjYxOTU3IDE2NS44MDQyNTd6Ii8+PC9zdmc+;rotation=45;" vertex="1" parent="1">
          <mxGeometry x="385" y="372" width="20" height="20" as="geometry" />
        </mxCell>
        <mxCell id="-TJM4q__RIzKJfzwJ7_V-29" value="" style="whiteSpace=wrap;html=1;aspect=fixed;" vertex="1" parent="1">
          <mxGeometry x="405" y="372" width="20" height="20" as="geometry" />
        </mxCell>
        <mxCell id="-TJM4q__RIzKJfzwJ7_V-30" value="" style="shape=image;verticalLabelPosition=bottom;labelBackgroundColor=default;verticalAlign=top;aspect=fixed;imageAspect=0;image=data:image/svg+xml,PHN2ZyB4bWxuczp4bGluaz0iaHR0cDovL3d3dy53My5vcmcvMTk5OS94bGluayIgeG1sbnM9Imh0dHA6Ly93d3cudzMub3JnLzIwMDAvc3ZnIiBoZWlnaHQ9IjIwMCIgd2lkdGg9IjIwMCIgdmVyc2lvbj0iMS4xIiB2aWV3Qm94PSIwIDAgMTAyNCAxMDI0IiBjbGFzcz0iaWNvbiI+PHBhdGggZmlsbD0iIzVENUQ1RCIgZD0iTTYwNy45MzQ0NDQgNDE3Ljg1Njg1M2MtNi4xNzk3NDYtNi4xNzc3LTEyLjc2Njc2OC0xMS43NDY1MzItMTkuNTU0MzU4LTE2LjkxMDEzNWwtMC4wMTIyOCAwLjAxMTI1NmMtNi45ODYxMTEtNi43MTkwMjgtMTYuNDcyMTYtMTAuODU3Mjc5LTI2LjkzMDM0OS0xMC44NTcyNzktMjEuNDY0ODcxIDAtMzguODY0MTQ2IDE3LjQwMDI5OS0zOC44NjQxNDYgMzguODY0MTQ2IDAgOS40OTczMDUgMy40MTE3MDMgMTguMTk2NDMxIDkuMDcxNjA5IDI0Ljk0NzE4MmwtMC4wMDEwMjMgMGMwLjAwMTAyMyAwLjAwMTAyMyAwLjAwMzA3IDAuMDAzMDcgMC4wMDUxMTcgMC4wMDQwOTMgMi43MTg5MjUgMy4yNDI4NTcgNS45NTM1OTUgNi4wMzg1MyA5LjU4NTMwOSA4LjI1MTk0MSAzLjY2NDQ1OSAzLjAyMTgyMyA3LjI2MTM4MSA1Ljk5NzU5OCAxMC42MjQ5ODggOS4zNjEyMDVsMy4yMDM5NzIgMy4yMDQ5OTVjNDAuMjc5Mzc5IDQwLjIyOTIzNyAyOC4yNTQ1MDcgMTA5LjUzOTgxMi0xMi4wMjQ4NzEgMTQ5LjgyMDIxNEwzNzEuMTU3NzYzIDc5Ni4zODM5NTZjLTQwLjI3ODM1NSA0MC4yMjkyMzctMTA1Ljc2MTc2NiA0MC4yMjkyMzctMTQ2LjA0MjE2NyAwbC0zLjIyOTU1NC0zLjIzMTYwMWMtNDAuMjgxNDI1LTQwLjI3ODM1NS00MC4yODE0MjUtMTA1LjgwOTg2MSAwLTE0NS45OTEwMDJsNzUuOTM1NDYtNzUuOTA5ODc3YzkuNzQyODk4LTcuNzMzMTI1IDE1Ljk5NzM0Ni0xOS42Njg5NjggMTUuOTk3MzQ2LTMzLjA3MjIzMyAwLTIzLjMxMjk2Mi0xOC44OTg0MTktNDIuMjExMzgxLTQyLjIxMTM4MS00Mi4yMTEzODEtOC43OTczNjMgMC0xNi45NjMzNDcgMi42OTMzNDItMjMuNzI1MzU0IDcuMjk3MTk3LTAuMDIxNDg5LTAuMDQ1MDI1LTAuMDQ0MDAyLTAuMDg4MDA0LTAuMDY2NTE1LTAuMTM0MDUzbC0wLjgwOTQzNSAwLjc1NzI0N2MtMi45ODkwNzcgMi4xNDg5NDMtNS42OTE2MjkgNC42NjkzNDYtOC4wMjU3OTEgNy41MTAwNDRsLTc4LjkxMzI4MSA3My44NDE3NzVjLTc0LjE3ODQ0MyA3NC4yMjk2MDgtNzQuMTc4NDQzIDE5NS42MzI2MDkgMCAyNjkuNzU4ODYzbDMuMjAzOTcyIDMuMjAyOTQ4Yzc0LjE3ODQ0MyA3NC4xMjcyNzggMTk1LjUyOTI1NSA3NC4xMjcyNzggMjY5LjcwNzY5OCAwbDE3MS44Mjk0ODQtMTcxLjg4MDY0OWM3NC4wNzYxMTItNzQuMTc0MzUgODAuMzU3MTY2LTE5MS4xODQyOTcgNi4yODIwNzctMjY1LjMxMTU3NUw2MDcuOTM0NDQ0IDQxNy44NTY4NTN6Ii8+PHBhdGggZmlsbD0iIzVENUQ1RCIgZD0iTTg1NS42MTk1NyAxNjUuODA0MjU3bC0zLjIwMzk3Mi0zLjIwMzk3MmMtNzQuMTc3NDItNzQuMTc4NDQzLTE5NS41MjgyMzItNzQuMTc4NDQzLTI2OS43MDY2NzUgMEw0MTAuODc5NDQgMzM0LjQ3OTkxMWMtNzQuMTc4NDQzIDc0LjE3ODQ0My03OC4yNjM0ODEgMTgxLjI5NjA4OS00LjA4NTAzOCAyNTUuNTIyNjI4bDMuMTUyODA2IDMuMTA0NzExYzMuMzY4NzI0IDMuMzY3NzAxIDYuODY1MzYxIDYuNTQzMDIgMTAuNDM0NjUzIDkuNTg4Mzc5IDIuNTgzODQ4IDIuODg1NzIzIDUuNjE4OTc0IDUuMzU1OTg1IDguOTkyODE1IDcuMzA5NDc2IDAuMDI1NTgzIDAuMDIwNDY2IDAuMDUyMTg5IDAuMDQxOTU2IDAuMDc3NzcxIDAuMDYyNDIybDAuMDExMjU2LTAuMDEwMjMzYzUuMzc3NDc0IDMuMDkyNDMxIDExLjYwODM4NiA0Ljg3MDkzOCAxOC4yNTc4MjkgNC44NzA5MzggMjAuMjYzNTA5IDAgMzYuNjg5NjItMTYuNDI4MTU4IDM2LjY4OTYyLTM2LjY4OTYyIDAtNS43MTkyNTgtMS4zMDk4MzItMTEuMTMyNTQ4LTMuNjQ1MDE3LTE1Ljk1ODQ2bDAgMGMtNC44NTA0NzEtMTAuODkxMDQ4LTEzLjkzMDI2Ny0xNy41MjEwNDktMjAuMjEwMjk3LTIzLjgwMjEwMmwtMy4xNTM4My0zLjEwMjY2NGMtNDAuMjc4MzU1LTQwLjI3ODM1NS0yNC45ODI5OTgtOTguNzk2MTIgMTUuMjk1MzU4LTEzOS4wNzQ0NzZsMTcxLjkzMDc5MS0xNzEuODMwNTA3YzQwLjE3OTA5NS00MC4yODA0MDIgMTA1LjY4NTAxOC00MC4yODA0MDIgMTQ1Ljk2NTQxOSAwbDMuMjA2MDE4IDMuMTUyODA2YzQwLjI3OTM3OSA0MC4yODE0MjUgNDAuMjc5Mzc5IDEwNS44Mzg1MTMgMCAxNDYuMDY3NzVsLTc1LjY4Njc5NiA3NS43Mzc5NjJjLTEwLjI5NjUwNyA3LjYyODc0OC0xNi45NzM1OCAxOS44NjU0NDMtMTYuOTczNTggMzMuNjYyNjgxIDAgMjMuMTIzNjUgMTguNzQ1OTQ2IDQxLjg3MDYyIDQxLjg3MDYyIDQxLjg3MDYyIDguMDQ4MzAzIDAgMTUuNTYzNDY0LTIuMjc1ODMzIDIxLjk0NDgwMS02LjIxMTQ2OSAwLjA0ODA5NSAwLjA4MTg2NCAwLjA5MzEyMSAwLjE1NzU4OSAwLjE0MTIxNiAwLjI0MDQ3N2wxLjE3MzczMi0xLjA4MzY4MWMzLjYxNjM2NC0yLjQyMTE0MiA2LjgyODUyMi01LjM5Mzg0NyA5LjUyOTAyNy04Ljc5MjI0N2w3OS43NjY3MTgtNzMuNjAzMzQ1QzkyOS43OTgwMTMgMzYxLjMzNDUzNSA5MjkuNzk4MDEzIDIzOS45ODE2NzYgODU1LjYxOTU3IDE2NS44MDQyNTd6Ii8+PC9zdmc+;rotation=45;" vertex="1" parent="1">
          <mxGeometry x="425" y="372" width="20" height="20" as="geometry" />
        </mxCell>
        <mxCell id="-TJM4q__RIzKJfzwJ7_V-31" value="" style="whiteSpace=wrap;html=1;aspect=fixed;" vertex="1" parent="1">
          <mxGeometry x="445" y="372" width="20" height="20" as="geometry" />
        </mxCell>
        <mxCell id="-TJM4q__RIzKJfzwJ7_V-32" value="" style="shape=image;verticalLabelPosition=bottom;labelBackgroundColor=default;verticalAlign=top;aspect=fixed;imageAspect=0;image=data:image/svg+xml,PHN2ZyB4bWxuczp4bGluaz0iaHR0cDovL3d3dy53My5vcmcvMTk5OS94bGluayIgeG1sbnM9Imh0dHA6Ly93d3cudzMub3JnLzIwMDAvc3ZnIiBoZWlnaHQ9IjIwMCIgd2lkdGg9IjIwMCIgdmVyc2lvbj0iMS4xIiB2aWV3Qm94PSIwIDAgMTAyNCAxMDI0IiBjbGFzcz0iaWNvbiI+PHBhdGggZmlsbD0iIzVENUQ1RCIgZD0iTTYwNy45MzQ0NDQgNDE3Ljg1Njg1M2MtNi4xNzk3NDYtNi4xNzc3LTEyLjc2Njc2OC0xMS43NDY1MzItMTkuNTU0MzU4LTE2LjkxMDEzNWwtMC4wMTIyOCAwLjAxMTI1NmMtNi45ODYxMTEtNi43MTkwMjgtMTYuNDcyMTYtMTAuODU3Mjc5LTI2LjkzMDM0OS0xMC44NTcyNzktMjEuNDY0ODcxIDAtMzguODY0MTQ2IDE3LjQwMDI5OS0zOC44NjQxNDYgMzguODY0MTQ2IDAgOS40OTczMDUgMy40MTE3MDMgMTguMTk2NDMxIDkuMDcxNjA5IDI0Ljk0NzE4MmwtMC4wMDEwMjMgMGMwLjAwMTAyMyAwLjAwMTAyMyAwLjAwMzA3IDAuMDAzMDcgMC4wMDUxMTcgMC4wMDQwOTMgMi43MTg5MjUgMy4yNDI4NTcgNS45NTM1OTUgNi4wMzg1MyA5LjU4NTMwOSA4LjI1MTk0MSAzLjY2NDQ1OSAzLjAyMTgyMyA3LjI2MTM4MSA1Ljk5NzU5OCAxMC42MjQ5ODggOS4zNjEyMDVsMy4yMDM5NzIgMy4yMDQ5OTVjNDAuMjc5Mzc5IDQwLjIyOTIzNyAyOC4yNTQ1MDcgMTA5LjUzOTgxMi0xMi4wMjQ4NzEgMTQ5LjgyMDIxNEwzNzEuMTU3NzYzIDc5Ni4zODM5NTZjLTQwLjI3ODM1NSA0MC4yMjkyMzctMTA1Ljc2MTc2NiA0MC4yMjkyMzctMTQ2LjA0MjE2NyAwbC0zLjIyOTU1NC0zLjIzMTYwMWMtNDAuMjgxNDI1LTQwLjI3ODM1NS00MC4yODE0MjUtMTA1LjgwOTg2MSAwLTE0NS45OTEwMDJsNzUuOTM1NDYtNzUuOTA5ODc3YzkuNzQyODk4LTcuNzMzMTI1IDE1Ljk5NzM0Ni0xOS42Njg5NjggMTUuOTk3MzQ2LTMzLjA3MjIzMyAwLTIzLjMxMjk2Mi0xOC44OTg0MTktNDIuMjExMzgxLTQyLjIxMTM4MS00Mi4yMTEzODEtOC43OTczNjMgMC0xNi45NjMzNDcgMi42OTMzNDItMjMuNzI1MzU0IDcuMjk3MTk3LTAuMDIxNDg5LTAuMDQ1MDI1LTAuMDQ0MDAyLTAuMDg4MDA0LTAuMDY2NTE1LTAuMTM0MDUzbC0wLjgwOTQzNSAwLjc1NzI0N2MtMi45ODkwNzcgMi4xNDg5NDMtNS42OTE2MjkgNC42NjkzNDYtOC4wMjU3OTEgNy41MTAwNDRsLTc4LjkxMzI4MSA3My44NDE3NzVjLTc0LjE3ODQ0MyA3NC4yMjk2MDgtNzQuMTc4NDQzIDE5NS42MzI2MDkgMCAyNjkuNzU4ODYzbDMuMjAzOTcyIDMuMjAyOTQ4Yzc0LjE3ODQ0MyA3NC4xMjcyNzggMTk1LjUyOTI1NSA3NC4xMjcyNzggMjY5LjcwNzY5OCAwbDE3MS44Mjk0ODQtMTcxLjg4MDY0OWM3NC4wNzYxMTItNzQuMTc0MzUgODAuMzU3MTY2LTE5MS4xODQyOTcgNi4yODIwNzctMjY1LjMxMTU3NUw2MDcuOTM0NDQ0IDQxNy44NTY4NTN6Ii8+PHBhdGggZmlsbD0iIzVENUQ1RCIgZD0iTTg1NS42MTk1NyAxNjUuODA0MjU3bC0zLjIwMzk3Mi0zLjIwMzk3MmMtNzQuMTc3NDItNzQuMTc4NDQzLTE5NS41MjgyMzItNzQuMTc4NDQzLTI2OS43MDY2NzUgMEw0MTAuODc5NDQgMzM0LjQ3OTkxMWMtNzQuMTc4NDQzIDc0LjE3ODQ0My03OC4yNjM0ODEgMTgxLjI5NjA4OS00LjA4NTAzOCAyNTUuNTIyNjI4bDMuMTUyODA2IDMuMTA0NzExYzMuMzY4NzI0IDMuMzY3NzAxIDYuODY1MzYxIDYuNTQzMDIgMTAuNDM0NjUzIDkuNTg4Mzc5IDIuNTgzODQ4IDIuODg1NzIzIDUuNjE4OTc0IDUuMzU1OTg1IDguOTkyODE1IDcuMzA5NDc2IDAuMDI1NTgzIDAuMDIwNDY2IDAuMDUyMTg5IDAuMDQxOTU2IDAuMDc3NzcxIDAuMDYyNDIybDAuMDExMjU2LTAuMDEwMjMzYzUuMzc3NDc0IDMuMDkyNDMxIDExLjYwODM4NiA0Ljg3MDkzOCAxOC4yNTc4MjkgNC44NzA5MzggMjAuMjYzNTA5IDAgMzYuNjg5NjItMTYuNDI4MTU4IDM2LjY4OTYyLTM2LjY4OTYyIDAtNS43MTkyNTgtMS4zMDk4MzItMTEuMTMyNTQ4LTMuNjQ1MDE3LTE1Ljk1ODQ2bDAgMGMtNC44NTA0NzEtMTAuODkxMDQ4LTEzLjkzMDI2Ny0xNy41MjEwNDktMjAuMjEwMjk3LTIzLjgwMjEwMmwtMy4xNTM4My0zLjEwMjY2NGMtNDAuMjc4MzU1LTQwLjI3ODM1NS0yNC45ODI5OTgtOTguNzk2MTIgMTUuMjk1MzU4LTEzOS4wNzQ0NzZsMTcxLjkzMDc5MS0xNzEuODMwNTA3YzQwLjE3OTA5NS00MC4yODA0MDIgMTA1LjY4NTAxOC00MC4yODA0MDIgMTQ1Ljk2NTQxOSAwbDMuMjA2MDE4IDMuMTUyODA2YzQwLjI3OTM3OSA0MC4yODE0MjUgNDAuMjc5Mzc5IDEwNS44Mzg1MTMgMCAxNDYuMDY3NzVsLTc1LjY4Njc5NiA3NS43Mzc5NjJjLTEwLjI5NjUwNyA3LjYyODc0OC0xNi45NzM1OCAxOS44NjU0NDMtMTYuOTczNTggMzMuNjYyNjgxIDAgMjMuMTIzNjUgMTguNzQ1OTQ2IDQxLjg3MDYyIDQxLjg3MDYyIDQxLjg3MDYyIDguMDQ4MzAzIDAgMTUuNTYzNDY0LTIuMjc1ODMzIDIxLjk0NDgwMS02LjIxMTQ2OSAwLjA0ODA5NSAwLjA4MTg2NCAwLjA5MzEyMSAwLjE1NzU4OSAwLjE0MTIxNiAwLjI0MDQ3N2wxLjE3MzczMi0xLjA4MzY4MWMzLjYxNjM2NC0yLjQyMTE0MiA2LjgyODUyMi01LjM5Mzg0NyA5LjUyOTAyNy04Ljc5MjI0N2w3OS43NjY3MTgtNzMuNjAzMzQ1QzkyOS43OTgwMTMgMzYxLjMzNDUzNSA5MjkuNzk4MDEzIDIzOS45ODE2NzYgODU1LjYxOTU3IDE2NS44MDQyNTd6Ii8+PC9zdmc+;rotation=45;" vertex="1" parent="1">
          <mxGeometry x="465" y="372" width="20" height="20" as="geometry" />
        </mxCell>
        <mxCell id="-TJM4q__RIzKJfzwJ7_V-33" value="" style="whiteSpace=wrap;html=1;aspect=fixed;" vertex="1" parent="1">
          <mxGeometry x="485" y="372" width="20" height="20" as="geometry" />
        </mxCell>
        <mxCell id="-TJM4q__RIzKJfzwJ7_V-34" value="" style="shape=image;verticalLabelPosition=bottom;labelBackgroundColor=default;verticalAlign=top;aspect=fixed;imageAspect=0;image=data:image/svg+xml,PHN2ZyB4bWxuczp4bGluaz0iaHR0cDovL3d3dy53My5vcmcvMTk5OS94bGluayIgeG1sbnM9Imh0dHA6Ly93d3cudzMub3JnLzIwMDAvc3ZnIiBoZWlnaHQ9IjIwMCIgd2lkdGg9IjIwMCIgdmVyc2lvbj0iMS4xIiB2aWV3Qm94PSIwIDAgMTAyNCAxMDI0IiBjbGFzcz0iaWNvbiI+PHBhdGggZmlsbD0iIzVENUQ1RCIgZD0iTTYwNy45MzQ0NDQgNDE3Ljg1Njg1M2MtNi4xNzk3NDYtNi4xNzc3LTEyLjc2Njc2OC0xMS43NDY1MzItMTkuNTU0MzU4LTE2LjkxMDEzNWwtMC4wMTIyOCAwLjAxMTI1NmMtNi45ODYxMTEtNi43MTkwMjgtMTYuNDcyMTYtMTAuODU3Mjc5LTI2LjkzMDM0OS0xMC44NTcyNzktMjEuNDY0ODcxIDAtMzguODY0MTQ2IDE3LjQwMDI5OS0zOC44NjQxNDYgMzguODY0MTQ2IDAgOS40OTczMDUgMy40MTE3MDMgMTguMTk2NDMxIDkuMDcxNjA5IDI0Ljk0NzE4MmwtMC4wMDEwMjMgMGMwLjAwMTAyMyAwLjAwMTAyMyAwLjAwMzA3IDAuMDAzMDcgMC4wMDUxMTcgMC4wMDQwOTMgMi43MTg5MjUgMy4yNDI4NTcgNS45NTM1OTUgNi4wMzg1MyA5LjU4NTMwOSA4LjI1MTk0MSAzLjY2NDQ1OSAzLjAyMTgyMyA3LjI2MTM4MSA1Ljk5NzU5OCAxMC42MjQ5ODggOS4zNjEyMDVsMy4yMDM5NzIgMy4yMDQ5OTVjNDAuMjc5Mzc5IDQwLjIyOTIzNyAyOC4yNTQ1MDcgMTA5LjUzOTgxMi0xMi4wMjQ4NzEgMTQ5LjgyMDIxNEwzNzEuMTU3NzYzIDc5Ni4zODM5NTZjLTQwLjI3ODM1NSA0MC4yMjkyMzctMTA1Ljc2MTc2NiA0MC4yMjkyMzctMTQ2LjA0MjE2NyAwbC0zLjIyOTU1NC0zLjIzMTYwMWMtNDAuMjgxNDI1LTQwLjI3ODM1NS00MC4yODE0MjUtMTA1LjgwOTg2MSAwLTE0NS45OTEwMDJsNzUuOTM1NDYtNzUuOTA5ODc3YzkuNzQyODk4LTcuNzMzMTI1IDE1Ljk5NzM0Ni0xOS42Njg5NjggMTUuOTk3MzQ2LTMzLjA3MjIzMyAwLTIzLjMxMjk2Mi0xOC44OTg0MTktNDIuMjExMzgxLTQyLjIxMTM4MS00Mi4yMTEzODEtOC43OTczNjMgMC0xNi45NjMzNDcgMi42OTMzNDItMjMuNzI1MzU0IDcuMjk3MTk3LTAuMDIxNDg5LTAuMDQ1MDI1LTAuMDQ0MDAyLTAuMDg4MDA0LTAuMDY2NTE1LTAuMTM0MDUzbC0wLjgwOTQzNSAwLjc1NzI0N2MtMi45ODkwNzcgMi4xNDg5NDMtNS42OTE2MjkgNC42NjkzNDYtOC4wMjU3OTEgNy41MTAwNDRsLTc4LjkxMzI4MSA3My44NDE3NzVjLTc0LjE3ODQ0MyA3NC4yMjk2MDgtNzQuMTc4NDQzIDE5NS42MzI2MDkgMCAyNjkuNzU4ODYzbDMuMjAzOTcyIDMuMjAyOTQ4Yzc0LjE3ODQ0MyA3NC4xMjcyNzggMTk1LjUyOTI1NSA3NC4xMjcyNzggMjY5LjcwNzY5OCAwbDE3MS44Mjk0ODQtMTcxLjg4MDY0OWM3NC4wNzYxMTItNzQuMTc0MzUgODAuMzU3MTY2LTE5MS4xODQyOTcgNi4yODIwNzctMjY1LjMxMTU3NUw2MDcuOTM0NDQ0IDQxNy44NTY4NTN6Ii8+PHBhdGggZmlsbD0iIzVENUQ1RCIgZD0iTTg1NS42MTk1NyAxNjUuODA0MjU3bC0zLjIwMzk3Mi0zLjIwMzk3MmMtNzQuMTc3NDItNzQuMTc4NDQzLTE5NS41MjgyMzItNzQuMTc4NDQzLTI2OS43MDY2NzUgMEw0MTAuODc5NDQgMzM0LjQ3OTkxMWMtNzQuMTc4NDQzIDc0LjE3ODQ0My03OC4yNjM0ODEgMTgxLjI5NjA4OS00LjA4NTAzOCAyNTUuNTIyNjI4bDMuMTUyODA2IDMuMTA0NzExYzMuMzY4NzI0IDMuMzY3NzAxIDYuODY1MzYxIDYuNTQzMDIgMTAuNDM0NjUzIDkuNTg4Mzc5IDIuNTgzODQ4IDIuODg1NzIzIDUuNjE4OTc0IDUuMzU1OTg1IDguOTkyODE1IDcuMzA5NDc2IDAuMDI1NTgzIDAuMDIwNDY2IDAuMDUyMTg5IDAuMDQxOTU2IDAuMDc3NzcxIDAuMDYyNDIybDAuMDExMjU2LTAuMDEwMjMzYzUuMzc3NDc0IDMuMDkyNDMxIDExLjYwODM4NiA0Ljg3MDkzOCAxOC4yNTc4MjkgNC44NzA5MzggMjAuMjYzNTA5IDAgMzYuNjg5NjItMTYuNDI4MTU4IDM2LjY4OTYyLTM2LjY4OTYyIDAtNS43MTkyNTgtMS4zMDk4MzItMTEuMTMyNTQ4LTMuNjQ1MDE3LTE1Ljk1ODQ2bDAgMGMtNC44NTA0NzEtMTAuODkxMDQ4LTEzLjkzMDI2Ny0xNy41MjEwNDktMjAuMjEwMjk3LTIzLjgwMjEwMmwtMy4xNTM4My0zLjEwMjY2NGMtNDAuMjc4MzU1LTQwLjI3ODM1NS0yNC45ODI5OTgtOTguNzk2MTIgMTUuMjk1MzU4LTEzOS4wNzQ0NzZsMTcxLjkzMDc5MS0xNzEuODMwNTA3YzQwLjE3OTA5NS00MC4yODA0MDIgMTA1LjY4NTAxOC00MC4yODA0MDIgMTQ1Ljk2NTQxOSAwbDMuMjA2MDE4IDMuMTUyODA2YzQwLjI3OTM3OSA0MC4yODE0MjUgNDAuMjc5Mzc5IDEwNS44Mzg1MTMgMCAxNDYuMDY3NzVsLTc1LjY4Njc5NiA3NS43Mzc5NjJjLTEwLjI5NjUwNyA3LjYyODc0OC0xNi45NzM1OCAxOS44NjU0NDMtMTYuOTczNTggMzMuNjYyNjgxIDAgMjMuMTIzNjUgMTguNzQ1OTQ2IDQxLjg3MDYyIDQxLjg3MDYyIDQxLjg3MDYyIDguMDQ4MzAzIDAgMTUuNTYzNDY0LTIuMjc1ODMzIDIxLjk0NDgwMS02LjIxMTQ2OSAwLjA0ODA5NSAwLjA4MTg2NCAwLjA5MzEyMSAwLjE1NzU4OSAwLjE0MTIxNiAwLjI0MDQ3N2wxLjE3MzczMi0xLjA4MzY4MWMzLjYxNjM2NC0yLjQyMTE0MiA2LjgyODUyMi01LjM5Mzg0NyA5LjUyOTAyNy04Ljc5MjI0N2w3OS43NjY3MTgtNzMuNjAzMzQ1QzkyOS43OTgwMTMgMzYxLjMzNDUzNSA5MjkuNzk4MDEzIDIzOS45ODE2NzYgODU1LjYxOTU3IDE2NS44MDQyNTd6Ii8+PC9zdmc+;rotation=45;" vertex="1" parent="1">
          <mxGeometry x="505" y="372" width="20" height="20" as="geometry" />
        </mxCell>
        <mxCell id="-TJM4q__RIzKJfzwJ7_V-35" value="" style="whiteSpace=wrap;html=1;aspect=fixed;" vertex="1" parent="1">
          <mxGeometry x="525" y="372" width="20" height="20" as="geometry" />
        </mxCell>
        <mxCell id="-TJM4q__RIzKJfzwJ7_V-36" value="" style="shape=image;verticalLabelPosition=bottom;labelBackgroundColor=default;verticalAlign=top;aspect=fixed;imageAspect=0;image=data:image/svg+xml,PHN2ZyB4bWxuczp4bGluaz0iaHR0cDovL3d3dy53My5vcmcvMTk5OS94bGluayIgeG1sbnM9Imh0dHA6Ly93d3cudzMub3JnLzIwMDAvc3ZnIiBoZWlnaHQ9IjIwMCIgd2lkdGg9IjIwMCIgdmVyc2lvbj0iMS4xIiB2aWV3Qm94PSIwIDAgMTAyNCAxMDI0IiBjbGFzcz0iaWNvbiI+PHBhdGggZmlsbD0iIzVENUQ1RCIgZD0iTTYwNy45MzQ0NDQgNDE3Ljg1Njg1M2MtNi4xNzk3NDYtNi4xNzc3LTEyLjc2Njc2OC0xMS43NDY1MzItMTkuNTU0MzU4LTE2LjkxMDEzNWwtMC4wMTIyOCAwLjAxMTI1NmMtNi45ODYxMTEtNi43MTkwMjgtMTYuNDcyMTYtMTAuODU3Mjc5LTI2LjkzMDM0OS0xMC44NTcyNzktMjEuNDY0ODcxIDAtMzguODY0MTQ2IDE3LjQwMDI5OS0zOC44NjQxNDYgMzguODY0MTQ2IDAgOS40OTczMDUgMy40MTE3MDMgMTguMTk2NDMxIDkuMDcxNjA5IDI0Ljk0NzE4MmwtMC4wMDEwMjMgMGMwLjAwMTAyMyAwLjAwMTAyMyAwLjAwMzA3IDAuMDAzMDcgMC4wMDUxMTcgMC4wMDQwOTMgMi43MTg5MjUgMy4yNDI4NTcgNS45NTM1OTUgNi4wMzg1MyA5LjU4NTMwOSA4LjI1MTk0MSAzLjY2NDQ1OSAzLjAyMTgyMyA3LjI2MTM4MSA1Ljk5NzU5OCAxMC42MjQ5ODggOS4zNjEyMDVsMy4yMDM5NzIgMy4yMDQ5OTVjNDAuMjc5Mzc5IDQwLjIyOTIzNyAyOC4yNTQ1MDcgMTA5LjUzOTgxMi0xMi4wMjQ4NzEgMTQ5LjgyMDIxNEwzNzEuMTU3NzYzIDc5Ni4zODM5NTZjLTQwLjI3ODM1NSA0MC4yMjkyMzctMTA1Ljc2MTc2NiA0MC4yMjkyMzctMTQ2LjA0MjE2NyAwbC0zLjIyOTU1NC0zLjIzMTYwMWMtNDAuMjgxNDI1LTQwLjI3ODM1NS00MC4yODE0MjUtMTA1LjgwOTg2MSAwLTE0NS45OTEwMDJsNzUuOTM1NDYtNzUuOTA5ODc3YzkuNzQyODk4LTcuNzMzMTI1IDE1Ljk5NzM0Ni0xOS42Njg5NjggMTUuOTk3MzQ2LTMzLjA3MjIzMyAwLTIzLjMxMjk2Mi0xOC44OTg0MTktNDIuMjExMzgxLTQyLjIxMTM4MS00Mi4yMTEzODEtOC43OTczNjMgMC0xNi45NjMzNDcgMi42OTMzNDItMjMuNzI1MzU0IDcuMjk3MTk3LTAuMDIxNDg5LTAuMDQ1MDI1LTAuMDQ0MDAyLTAuMDg4MDA0LTAuMDY2NTE1LTAuMTM0MDUzbC0wLjgwOTQzNSAwLjc1NzI0N2MtMi45ODkwNzcgMi4xNDg5NDMtNS42OTE2MjkgNC42NjkzNDYtOC4wMjU3OTEgNy41MTAwNDRsLTc4LjkxMzI4MSA3My44NDE3NzVjLTc0LjE3ODQ0MyA3NC4yMjk2MDgtNzQuMTc4NDQzIDE5NS42MzI2MDkgMCAyNjkuNzU4ODYzbDMuMjAzOTcyIDMuMjAyOTQ4Yzc0LjE3ODQ0MyA3NC4xMjcyNzggMTk1LjUyOTI1NSA3NC4xMjcyNzggMjY5LjcwNzY5OCAwbDE3MS44Mjk0ODQtMTcxLjg4MDY0OWM3NC4wNzYxMTItNzQuMTc0MzUgODAuMzU3MTY2LTE5MS4xODQyOTcgNi4yODIwNzctMjY1LjMxMTU3NUw2MDcuOTM0NDQ0IDQxNy44NTY4NTN6Ii8+PHBhdGggZmlsbD0iIzVENUQ1RCIgZD0iTTg1NS42MTk1NyAxNjUuODA0MjU3bC0zLjIwMzk3Mi0zLjIwMzk3MmMtNzQuMTc3NDItNzQuMTc4NDQzLTE5NS41MjgyMzItNzQuMTc4NDQzLTI2OS43MDY2NzUgMEw0MTAuODc5NDQgMzM0LjQ3OTkxMWMtNzQuMTc4NDQzIDc0LjE3ODQ0My03OC4yNjM0ODEgMTgxLjI5NjA4OS00LjA4NTAzOCAyNTUuNTIyNjI4bDMuMTUyODA2IDMuMTA0NzExYzMuMzY4NzI0IDMuMzY3NzAxIDYuODY1MzYxIDYuNTQzMDIgMTAuNDM0NjUzIDkuNTg4Mzc5IDIuNTgzODQ4IDIuODg1NzIzIDUuNjE4OTc0IDUuMzU1OTg1IDguOTkyODE1IDcuMzA5NDc2IDAuMDI1NTgzIDAuMDIwNDY2IDAuMDUyMTg5IDAuMDQxOTU2IDAuMDc3NzcxIDAuMDYyNDIybDAuMDExMjU2LTAuMDEwMjMzYzUuMzc3NDc0IDMuMDkyNDMxIDExLjYwODM4NiA0Ljg3MDkzOCAxOC4yNTc4MjkgNC44NzA5MzggMjAuMjYzNTA5IDAgMzYuNjg5NjItMTYuNDI4MTU4IDM2LjY4OTYyLTM2LjY4OTYyIDAtNS43MTkyNTgtMS4zMDk4MzItMTEuMTMyNTQ4LTMuNjQ1MDE3LTE1Ljk1ODQ2bDAgMGMtNC44NTA0NzEtMTAuODkxMDQ4LTEzLjkzMDI2Ny0xNy41MjEwNDktMjAuMjEwMjk3LTIzLjgwMjEwMmwtMy4xNTM4My0zLjEwMjY2NGMtNDAuMjc4MzU1LTQwLjI3ODM1NS0yNC45ODI5OTgtOTguNzk2MTIgMTUuMjk1MzU4LTEzOS4wNzQ0NzZsMTcxLjkzMDc5MS0xNzEuODMwNTA3YzQwLjE3OTA5NS00MC4yODA0MDIgMTA1LjY4NTAxOC00MC4yODA0MDIgMTQ1Ljk2NTQxOSAwbDMuMjA2MDE4IDMuMTUyODA2YzQwLjI3OTM3OSA0MC4yODE0MjUgNDAuMjc5Mzc5IDEwNS44Mzg1MTMgMCAxNDYuMDY3NzVsLTc1LjY4Njc5NiA3NS43Mzc5NjJjLTEwLjI5NjUwNyA3LjYyODc0OC0xNi45NzM1OCAxOS44NjU0NDMtMTYuOTczNTggMzMuNjYyNjgxIDAgMjMuMTIzNjUgMTguNzQ1OTQ2IDQxLjg3MDYyIDQxLjg3MDYyIDQxLjg3MDYyIDguMDQ4MzAzIDAgMTUuNTYzNDY0LTIuMjc1ODMzIDIxLjk0NDgwMS02LjIxMTQ2OSAwLjA0ODA5NSAwLjA4MTg2NCAwLjA5MzEyMSAwLjE1NzU4OSAwLjE0MTIxNiAwLjI0MDQ3N2wxLjE3MzczMi0xLjA4MzY4MWMzLjYxNjM2NC0yLjQyMTE0MiA2LjgyODUyMi01LjM5Mzg0NyA5LjUyOTAyNy04Ljc5MjI0N2w3OS43NjY3MTgtNzMuNjAzMzQ1QzkyOS43OTgwMTMgMzYxLjMzNDUzNSA5MjkuNzk4MDEzIDIzOS45ODE2NzYgODU1LjYxOTU3IDE2NS44MDQyNTd6Ii8+PC9zdmc+;rotation=45;" vertex="1" parent="1">
          <mxGeometry x="545" y="372" width="20" height="20" as="geometry" />
        </mxCell>
        <mxCell id="-TJM4q__RIzKJfzwJ7_V-37" value="" style="whiteSpace=wrap;html=1;aspect=fixed;" vertex="1" parent="1">
          <mxGeometry x="565" y="372" width="20" height="20" as="geometry" />
        </mxCell>
        <mxCell id="-TJM4q__RIzKJfzwJ7_V-42" value="" style="edgeStyle=orthogonalEdgeStyle;rounded=0;orthogonalLoop=1;jettySize=auto;html=1;entryX=0;entryY=0.5;entryDx=0;entryDy=0;" edge="1" parent="1" target="-TJM4q__RIzKJfzwJ7_V-39">
          <mxGeometry relative="1" as="geometry">
            <mxPoint x="480" y="412" as="sourcePoint" />
            <Array as="points" />
          </mxGeometry>
        </mxCell>
        <mxCell id="-TJM4q__RIzKJfzwJ7_V-38" value="Forwarder" style="text;align=right;verticalAlign=middle;resizable=0;points=[];autosize=1;strokeColor=none;fillColor=none;rounded=0;html=1;spacing=-2;horizontal=1;fontStyle=1;strokeWidth=0;spacingTop=0;" vertex="1" parent="1">
          <mxGeometry x="407" y="402" width="70" height="20" as="geometry" />
        </mxCell>
        <mxCell id="-TJM4q__RIzKJfzwJ7_V-39" value="" style="shape=image;verticalLabelPosition=bottom;labelBackgroundColor=default;verticalAlign=top;aspect=fixed;imageAspect=0;image=data:image/svg+xml,PHN2ZyB4bWxuczp4bGluaz0iaHR0cDovL3d3dy53My5vcmcvMTk5OS94bGluayIgeG1sbnM9Imh0dHA6Ly93d3cudzMub3JnLzIwMDAvc3ZnIiBoZWlnaHQ9IjIwMCIgd2lkdGg9IjIwMCIgdmVyc2lvbj0iMS4xIiB2aWV3Qm94PSIwIDAgMTAyNCAxMDI0IiBjbGFzcz0iaWNvbiI+PHBhdGggZmlsbD0iIzhhOGE4YSIgZD0iTTM0NS4zMTU1NTYgMTcwLjA5Nzc3OGgxMjYuMjkzMzMzYzIxLjYxNzc3OCAwIDM1Ljg0LTE1LjkyODg4OSAzNS44NC0zNS44NHMtMTQuMjIyMjIyLTM1Ljg0LTM1Ljg0LTM1Ljg0SDM0NS4zMTU1NTZjLTIxLjYxNzc3OCAwLTM1Ljg0IDE1LjkyODg4OS0zNS44NCAzNS44NHMxNC4yMjIyMjIgMzUuODQgMzUuODQgMzUuODR6TTY5Ni44ODg4ODkgNTQyLjE1MTExMXYtNS42ODg4ODljMC0yMy44OTMzMzMgMTkuMzQyMjIyLTQzLjgwNDQ0NCA0My44MDQ0NDQtNDMuODA0NDQ0IDIzLjg5MzMzMyAwIDQzLjgwNDQ0NCAxOS4zNDIyMjIgNDMuODA0NDQ1IDQzLjgwNDQ0NHY1LjY4ODg4OWMxNS45Mjg4ODkgMy45ODIyMjIgMzEuMjg4ODg5IDEwLjI0IDQ0Ljk0MjIyMiAxOC43NzMzMzNsMy45ODIyMjItMy45ODIyMjJjMTcuMDY2NjY3LTE3LjA2NjY2NyA0NC4zNzMzMzMtMTcuMDY2NjY3IDYxLjQ0IDAgMTcuMDY2NjY3IDE3LjA2NjY2NyAxNy4wNjY2NjcgNDQuMzczMzMzIDAgNjEuNDRsLTMuOTgyMjIyIDMuOTgyMjIyYzcuOTY0NDQ0IDEzLjY1MzMzMyAxNC43OTExMTEgMjkuMDEzMzMzIDE4Ljc3MzMzMyA0NC45NDIyMjNoNS42ODg4ODljMjMuODkzMzMzLTEuMTM3Nzc4IDQ0LjM3MzMzMyAxNy42MzU1NTYgNDUuNTExMTExIDQxLjUyODg4OSAxLjEzNzc3OCAyMy44OTMzMzMtMTcuNjM1NTU2IDQ0LjM3MzMzMy00MS41Mjg4ODkgNDUuNTExMTExaC05LjY3MTExMWMtMy45ODIyMjIgMTUuOTI4ODg5LTEwLjI0IDMwLjcyLTE4Ljc3MzMzMyA0NC45NDIyMjJsMy45ODIyMjIgMy45ODIyMjJjMTcuMDY2NjY3IDE3LjA2NjY2NyAxNy4wNjY2NjcgNDQuMzczMzMzIDAgNjEuNDQtMTcuMDY2NjY3IDE3LjA2NjY2Ny00NC4zNzMzMzMgMTcuMDY2NjY3LTYxLjQ0IDBsLTMuOTgyMjIyLTMuOTgyMjIyYy0xNC4yMjIyMjIgOC41MzMzMzMtMjkuMDEzMzMzIDE0Ljc5MTExMS00NC45NDIyMjIgMTguNzczMzMzdjUuNjg4ODg5YzAgMjMuODkzMzMzLTE5LjM0MjIyMiA0My44MDQ0NDQtNDMuODA0NDQ1IDQzLjgwNDQ0NS0yMy44OTMzMzMgMC00My44MDQ0NDQtMTkuMzQyMjIyLTQzLjgwNDQ0NC00My44MDQ0NDV2LTUuNjg4ODg5Yy0xNS45Mjg4ODktMy45ODIyMjItMzAuNzItMTAuMjQtNDQuOTQyMjIyLTE4Ljc3MzMzM2wtMy45ODIyMjMgMy45ODIyMjJjLTE3LjA2NjY2NyAxNi40OTc3NzgtNDQuMzczMzMzIDE2LjQ5Nzc3OC02MC44NzExMTEtMC41Njg4ODktMTcuMDY2NjY3LTE2LjQ5Nzc3OC0xNy4wNjY2NjctNDMuODA0NDQ0LTAuNTY4ODg5LTYwLjg3MTExMWwzLjk4MjIyMy0zLjk4MjIyMmMtOC41MzMzMzMtMTQuMjIyMjIyLTE0Ljc5MTExMS0yOS4wMTMzMzMtMTguNzczMzM0LTQ0Ljk0MjIyMmgtNS42ODg4ODljLTIzLjg5MzMzMyAxLjEzNzc3OC00NC4zNzMzMzMtMTcuNjM1NTU2LTQ1LjUxMTExMS00MS41Mjg4ODlzMTcuNjM1NTU2LTQ0LjM3MzMzMyA0MS41Mjg4ODktNDUuNTExMTExaDkuNjcxMTExYzMuOTgyMjIyLTE1LjkyODg4OSAxMC4yNC0zMS4yODg4ODkgMTguNzczMzM0LTQ0Ljk0MjIyM2wtMy45ODIyMjMtMy45ODIyMjJjLTE3LjA2NjY2Ny0xNy4wNjY2NjctMTcuMDY2NjY3LTQ0LjM3MzMzMyAwLTYxLjQ0IDE3LjA2NjY2Ny0xNy4wNjY2NjcgNDQuMzczMzMzLTE3LjA2NjY2NyA2MS40NCAwbDMuOTgyMjIzIDMuOTgyMjIyYzE0LjIyMjIyMi04LjUzMzMzMyAyOS4wMTMzMzMtMTQuNzkxMTExIDQ0Ljk0MjIyMi0xOC43NzMzMzN6IG00My44MDQ0NDQgMjU1LjQzMTExMWM0OC4zNTU1NTYgMCA4Ny4wNC0zOC42ODQ0NDQgODcuMDQtODcuMDRzLTM5LjI1MzMzMy04Ny4wNC04Ny4wNC04Ny4wNGMtNDguMzU1NTU2LTEuNzA2NjY3LTg4LjE3Nzc3OCAzNi40MDg4ODktODkuODg0NDQ0IDg0LjE5NTU1Ni0xLjcwNjY2NyA0Ny43ODY2NjcgMzYuNDA4ODg5IDg4LjE3Nzc3OCA4NC4xOTU1NTUgODkuODg0NDQ0aDUuNjg4ODg5eiIvPjxwYXRoIGZpbGw9IiM4YThhOGEiIGQ9Ik02ODcuNzg2NjY3IDkxOC4xODY2Njd2LTEuMTM3Nzc4YzAtMy40MTMzMzMtMi4yNzU1NTYtNi4yNTc3NzgtNS42ODg4ODktNy4zOTU1NTYtMTUuMzYtNC41NTExMTEtMzAuMTUxMTExLTEwLjI0LTQzLjgwNDQ0NS0xOC4yMDQ0NDQtMi44NDQ0NDQtMS43MDY2NjctNi44MjY2NjctMS4xMzc3NzgtOS4xMDIyMjIgMS4xMzc3NzhsLTAuNTY4ODg5IDAuNTY4ODg5Yy0yMC40OCAxOS45MTExMTEtNTMuNDc1NTU2IDE5LjM0MjIyMi03My4zODY2NjYtMC41Njg4ODktMjAuNDgtMTkuOTExMTExLTIwLjQ4LTUyLjkwNjY2Ny0wLjU2ODg4OS03My4zODY2NjdsMC41Njg4ODktMC41Njg4ODljMi4yNzU1NTYtMi4yNzU1NTYgMi44NDQ0NDQtNi4yNTc3NzggMS4xMzc3NzctOS4xMDIyMjItNy45NjQ0NDQtMTMuNjUzMzMzLTEzLjY1MzMzMy0yOC40NDQ0NDQtMTguMjA0NDQ0LTQzLjgwNDQ0NS0xLjEzNzc3OC0zLjQxMzMzMy0zLjk4MjIyMi01LjY4ODg4OS03LjM5NTU1Ni01LjY4ODg4OGgtMS4xMzc3NzdjLTI5LjAxMzMzMyAxLjEzNzc3OC01My40NzU1NTYtMjEuMDQ4ODg5LTU0LjYxMzMzNC01MC4wNjIyMjMtMS4xMzc3NzgtMjkuMDEzMzMzIDIxLjA0ODg4OS01My40NzU1NTYgNTAuMDYyMjIyLTU0LjYxMzMzM2g1LjY4ODg4OWMzLjQxMzMzMyAwIDYuMjU3Nzc4LTIuMjc1NTU2IDcuMzk1NTU2LTUuNjg4ODg5IDQuNTUxMTExLTE1LjM2IDEwLjgwODg4OS0zMC4xNTExMTEgMTguMjA0NDQ0LTQzLjgwNDQ0NCAxLjcwNjY2Ny0yLjg0NDQ0NCAxLjEzNzc3OC02LjgyNjY2Ny0xLjEzNzc3Ny05LjEwMjIyM2wtMC41Njg4ODktMC41Njg4ODhjLTIwLjQ4LTIwLjQ4LTIwLjQ4LTUzLjQ3NTU1NiAwLTczLjk1NTU1NiAyMC40OC0yMC40OCA1My40NzU1NTYtMjAuNDggNzMuOTU1NTU1IDBsMC41Njg4ODkgMC41Njg4ODljMi4yNzU1NTYgMi4yNzU1NTYgNi4yNTc3NzggMi44NDQ0NDQgOS4xMDIyMjIgMS4xMzc3NzggMTMuNjUzMzMzLTcuMzk1NTU2IDI4LjQ0NDQ0NC0xMy42NTMzMzMgNDMuODA0NDQ1LTE4LjIwNDQ0NSAzLjQxMzMzMy0xLjEzNzc3OCA1LjY4ODg4OS0zLjk4MjIyMiA1LjY4ODg4OS03LjM5NTU1NXYtMS4xMzc3NzhjMC0yOS4wMTMzMzMgMjMuMzI0NDQ0LTUyLjMzNzc3OCA1Mi4zMzc3NzctNTIuMzM3Nzc4aDMuNDEzMzM0YzQuNTUxMTExIDAuNTY4ODg5IDcuOTY0NDQ0LTIuODQ0NDQ0IDcuOTY0NDQ0LTcuMzk1NTU1di0yODQuNDQ0NDQ1YzAtMjIuMTg2NjY3LTE3LjYzNTU1Ni0zOS44MjIyMjItMzkuODIyMjIyLTM5LjgyMjIyMkg1NTAuNjg0NDQ0Yy0zLjk4MjIyMiAwLTcuMzk1NTU2IDMuNDEzMzMzLTcuMzk1NTU1IDcuMzk1NTU1djMuNDEzMzM0YzAgMzguNjg0NDQ0LTMxLjI4ODg4OSA2OS45NzMzMzMtNjkuOTczMzMzIDY5Ljk3MzMzM0gzNDYuNDUzMzMzYy0zOC42ODQ0NDQgMC02OS45NzMzMzMtMzEuMjg4ODg5LTY5Ljk3MzMzMy02OS45NzMzMzN2LTMuNDEzMzM0YzAtMy45ODIyMjItMy40MTMzMzMtNy4zOTU1NTYtNy4zOTU1NTYtNy4zOTU1NTVoLTE2NC45Nzc3NzdjLTIyLjE4NjY2NyAwLTM5LjgyMjIyMiAxNy42MzU1NTYtMzkuODIyMjIzIDM5LjgyMjIyMnY3MjkuODg0NDQ1YzAgMjIuMTg2NjY3IDE3LjYzNTU1NiAzOS44MjIyMjIgMzkuODIyMjIzIDM5LjgyMjIyMmg1NzYuMjg0NDQ0YzQuNTUxMTExIDMuNDEzMzMzIDcuMzk1NTU2IDAgNy4zOTU1NTYtNC41NTExMTF6TTIwMi41MjQ0NDQgMjk5LjIzNTU1NmgzNzcuMTczMzM0YzE0LjIyMjIyMiAwIDI2LjczNzc3OCAxMi41MTU1NTYgMjYuNzM3Nzc4IDI2LjczNzc3N3MtMTIuNTE1NTU2IDI2LjczNzc3OC0yNi43Mzc3NzggMjYuNzM3Nzc4SDIwMi41MjQ0NDRjLTE0LjIyMjIyMiAwLTI2LjczNzc3OC0xMi41MTU1NTYtMjYuNzM3Nzc3LTI2LjczNzc3OHMxMi41MTU1NTYtMjYuNzM3Nzc4IDI2LjczNzc3Ny0yNi43Mzc3Nzd6IG0xOTcuOTczMzM0IDQ2Ny4wNTc3NzdIMjAyLjUyNDQ0NGMtMTQuMjIyMjIyIDAtMjYuNzM3Nzc4LTEyLjUxNTU1Ni0yNi43Mzc3NzctMjYuNzM3Nzc3czEyLjUxNTU1Ni0yNi43Mzc3NzggMjYuNzM3Nzc3LTI2LjczNzc3OGgxOTYuMjY2NjY3YzE3LjYzNTU1NiAwIDMxLjI4ODg4OSAxNS45Mjg4ODkgMjcuMzA2NjY3IDMyLjk5NTU1NS0yLjI3NTU1NiAxMi41MTU1NTYtMTMuNjUzMzMzIDIwLjQ4LTI1LjYgMjAuNDh6IG0zNS44NC0yMTUuNjA4ODg5SDIwMi41MjQ0NDRjLTE0LjIyMjIyMiAwLTI2LjczNzc3OC0xMi41MTU1NTYtMjYuNzM3Nzc3LTI2LjczNzc3N3MxMi41MTU1NTYtMjYuNzM3Nzc4IDI2LjczNzc3Ny0yNi43Mzc3NzhoMjMyLjY3NTU1NmMxNy42MzU1NTYgMCAzMS4yODg4ODkgMTUuOTI4ODg5IDI3LjMwNjY2NyAzMi45OTU1NTUtMi44NDQ0NDQgMTIuNTE1NTU2LTEzLjY1MzMzMyAyMC40OC0yNi4xNjg4ODkgMjAuNDh6Ii8+PC9zdmc+;" vertex="1" parent="1">
          <mxGeometry x="509" y="402" width="20" height="20" as="geometry" />
        </mxCell>
        <mxCell id="-TJM4q__RIzKJfzwJ7_V-40" value="&lt;font size=&quot;1&quot;&gt;&lt;b&gt;dApps&lt;/b&gt;&lt;/font&gt;" style="text;html=1;align=center;verticalAlign=middle;resizable=0;points=[];autosize=1;strokeColor=none;fillColor=none;fontColor=#808080;" vertex="1" parent="1">
          <mxGeometry x="521" y="397" width="50" height="30" as="geometry" />
        </mxCell>
        <mxCell id="-TJM4q__RIzKJfzwJ7_V-43" value="&lt;b style=&quot;&quot;&gt;Runtime&lt;br&gt;Enclave&lt;/b&gt;" style="text;html=1;align=center;verticalAlign=middle;resizable=0;points=[];autosize=1;strokeColor=none;fillColor=none;spacing=0;spacingTop=-2;" vertex="1" parent="1">
          <mxGeometry x="385" y="500" width="70" height="30" as="geometry" />
        </mxCell>
        <mxCell id="-TJM4q__RIzKJfzwJ7_V-44" value="&lt;b style=&quot;&quot;&gt;Guardian&lt;br&gt;Enclave&lt;/b&gt;" style="text;html=1;align=center;verticalAlign=middle;resizable=0;points=[];autosize=1;strokeColor=none;fillColor=none;spacing=0;spacingTop=-2;" vertex="1" parent="1">
          <mxGeometry x="505" y="500" width="70" height="30" as="geometry" />
        </mxCell>
        <mxCell id="-TJM4q__RIzKJfzwJ7_V-45" value="&lt;b style=&quot;&quot;&gt;Guardian&lt;br&gt;Enclave&lt;/b&gt;" style="text;html=1;align=center;verticalAlign=middle;resizable=0;points=[];autosize=1;strokeColor=none;fillColor=none;spacingTop=-2;spacing=0;" vertex="1" parent="1">
          <mxGeometry x="505" y="620" width="70" height="30" as="geometry" />
        </mxCell>
        <mxCell id="-TJM4q__RIzKJfzwJ7_V-46" value="&lt;b style=&quot;&quot;&gt;Fetcher&lt;br&gt;Enclave&lt;/b&gt;" style="text;html=1;align=center;verticalAlign=middle;resizable=0;points=[];autosize=1;strokeColor=none;fillColor=none;spacingTop=-2;spacing=0;" vertex="1" parent="1">
          <mxGeometry x="390" y="620" width="60" height="30" as="geometry" />
        </mxCell>
        <mxCell id="-TJM4q__RIzKJfzwJ7_V-47" value="Data Source" style="text;html=1;align=center;verticalAlign=middle;resizable=0;points=[];autosize=1;strokeColor=none;fillColor=none;fontStyle=1;fontSize=11;" vertex="1" parent="1">
          <mxGeometry x="225" y="593" width="90" height="30" as="geometry" />
        </mxCell>
        <mxCell id="-TJM4q__RIzKJfzwJ7_V-48" value="&lt;b&gt;dApps&lt;br&gt;User&lt;/b&gt;" style="text;html=1;align=center;verticalAlign=middle;resizable=0;points=[];autosize=1;strokeColor=none;fillColor=none;spacingTop=-2;spacing=0;" vertex="1" parent="1">
          <mxGeometry x="238.75" y="490" width="60" height="30" as="geometry" />
        </mxCell>
        <mxCell id="-TJM4q__RIzKJfzwJ7_V-49" value="" style="endArrow=classic;html=1;rounded=0;entryX=0;entryY=0.75;entryDx=0;entryDy=0;exitDx=0;exitDy=0;exitPerimeter=0;" edge="1" parent="1">
          <mxGeometry width="50" height="50" relative="1" as="geometry">
            <mxPoint x="288" y="480" as="sourcePoint" />
            <mxPoint x="400" y="480" as="targetPoint" />
          </mxGeometry>
        </mxCell>
        <mxCell id="-TJM4q__RIzKJfzwJ7_V-58" value="" style="endArrow=classic;html=1;rounded=0;entryX=0.5;entryY=1;entryDx=0;entryDy=0;verticalAlign=middle;horizontal=1;" edge="1" parent="1">
          <mxGeometry width="50" height="50" relative="1" as="geometry">
            <mxPoint x="545" y="680" as="sourcePoint" />
            <mxPoint x="273.75" y="646" as="targetPoint" />
            <Array as="points">
              <mxPoint x="545" y="680" />
              <mxPoint x="274" y="680" />
            </Array>
          </mxGeometry>
        </mxCell>
        <mxCell id="-TJM4q__RIzKJfzwJ7_V-65" value="" style="endArrow=classic;html=1;rounded=0;entryX=0;entryY=0.5;entryDx=0;entryDy=0;exitDx=0;exitDy=0;" edge="1" parent="1" source="-TJM4q__RIzKJfzwJ7_V-73" target="-TJM4q__RIzKJfzwJ7_V-8">
          <mxGeometry width="50" height="50" relative="1" as="geometry">
            <mxPoint x="445" y="480" as="sourcePoint" />
            <mxPoint x="410" y="500" as="targetPoint" />
          </mxGeometry>
        </mxCell>
        <mxCell id="-TJM4q__RIzKJfzwJ7_V-66" value="" style="endArrow=none;html=1;rounded=0;" edge="1" parent="1">
          <mxGeometry width="50" height="50" relative="1" as="geometry">
            <mxPoint x="480" y="600" as="sourcePoint" />
            <mxPoint x="480" y="480" as="targetPoint" />
          </mxGeometry>
        </mxCell>
        <mxCell id="-TJM4q__RIzKJfzwJ7_V-67" value="" style="endArrow=classic;startArrow=classic;html=1;rounded=0;exitX=1;exitY=0.5;exitDx=0;exitDy=0;entryX=0;entryY=0.5;entryDx=0;entryDy=0;" edge="1" parent="1" source="-TJM4q__RIzKJfzwJ7_V-14" target="-TJM4q__RIzKJfzwJ7_V-17">
          <mxGeometry width="50" height="50" relative="1" as="geometry">
            <mxPoint x="450" y="510" as="sourcePoint" />
            <mxPoint x="500" y="460" as="targetPoint" />
          </mxGeometry>
        </mxCell>
        <mxCell id="-TJM4q__RIzKJfzwJ7_V-70" value="" style="shape=waypoint;sketch=0;fillStyle=solid;size=6;pointerEvents=1;points=[];fillColor=none;resizable=0;rotatable=0;perimeter=centerPerimeter;snapToPoint=1;" vertex="1" parent="1">
          <mxGeometry x="279" y="470" width="20" height="20" as="geometry" />
        </mxCell>
        <mxCell id="-TJM4q__RIzKJfzwJ7_V-73" value="" style="shape=waypoint;sketch=0;fillStyle=solid;size=6;pointerEvents=1;points=[];fillColor=none;resizable=0;rotatable=0;perimeter=centerPerimeter;snapToPoint=1;" vertex="1" parent="1">
          <mxGeometry x="435" y="470" width="20" height="20" as="geometry" />
        </mxCell>
        <mxCell id="-TJM4q__RIzKJfzwJ7_V-75" value="" style="endArrow=none;html=1;rounded=0;entryX=0.764;entryY=0.531;entryDx=0;entryDy=0;entryPerimeter=0;" edge="1" parent="1" target="-TJM4q__RIzKJfzwJ7_V-77">
          <mxGeometry width="50" height="50" relative="1" as="geometry">
            <mxPoint x="525" y="680" as="sourcePoint" />
            <mxPoint x="564" y="480" as="targetPoint" />
            <Array as="points">
              <mxPoint x="585" y="680" />
              <mxPoint x="585" y="490" />
            </Array>
          </mxGeometry>
        </mxCell>
        <mxCell id="-TJM4q__RIzKJfzwJ7_V-77" value="" style="shape=waypoint;sketch=0;fillStyle=solid;size=6;pointerEvents=1;points=[];fillColor=none;resizable=0;rotatable=0;perimeter=centerPerimeter;snapToPoint=1;" vertex="1" parent="1">
          <mxGeometry x="554" y="480" width="20" height="20" as="geometry" />
        </mxCell>
        <mxCell id="-TJM4q__RIzKJfzwJ7_V-78" value="" style="shape=waypoint;sketch=0;fillStyle=solid;size=6;pointerEvents=1;points=[];fillColor=none;resizable=0;rotatable=0;perimeter=centerPerimeter;snapToPoint=1;" vertex="1" parent="1">
          <mxGeometry x="525" y="640" width="20" height="20" as="geometry" />
        </mxCell>
        <mxCell id="-TJM4q__RIzKJfzwJ7_V-79" value="" style="shape=waypoint;sketch=0;fillStyle=solid;size=6;pointerEvents=1;points=[];fillColor=none;resizable=0;rotatable=0;perimeter=centerPerimeter;snapToPoint=1;" vertex="1" parent="1">
          <mxGeometry x="400" y="640" width="20" height="20" as="geometry" />
        </mxCell>
        <mxCell id="-TJM4q__RIzKJfzwJ7_V-80" value="" style="endArrow=none;html=1;rounded=0;" edge="1" parent="1" source="-TJM4q__RIzKJfzwJ7_V-79">
          <mxGeometry width="50" height="50" relative="1" as="geometry">
            <mxPoint x="450" y="650" as="sourcePoint" />
            <mxPoint x="410" y="680" as="targetPoint" />
          </mxGeometry>
        </mxCell>
        <mxCell id="-TJM4q__RIzKJfzwJ7_V-81" value="" style="endArrow=none;html=1;rounded=0;" edge="1" parent="1" source="-TJM4q__RIzKJfzwJ7_V-78">
          <mxGeometry width="50" height="50" relative="1" as="geometry">
            <mxPoint x="420" y="660" as="sourcePoint" />
            <mxPoint x="535" y="680" as="targetPoint" />
          </mxGeometry>
        </mxCell>
        <mxCell id="-TJM4q__RIzKJfzwJ7_V-82" value="" style="shape=waypoint;sketch=0;fillStyle=solid;size=6;pointerEvents=1;points=[];fillColor=none;resizable=0;rotatable=0;perimeter=centerPerimeter;snapToPoint=1;" vertex="1" parent="1">
          <mxGeometry x="250" y="640" width="20" height="20" as="geometry" />
        </mxCell>
        <mxCell id="-TJM4q__RIzKJfzwJ7_V-83" value="" style="endArrow=none;html=1;rounded=0;" edge="1" parent="1">
          <mxGeometry width="50" height="50" relative="1" as="geometry">
            <mxPoint x="260" y="649.9999999999999" as="sourcePoint" />
            <mxPoint x="600" y="480" as="targetPoint" />
            <Array as="points">
              <mxPoint x="260" y="690" />
              <mxPoint x="600" y="690" />
            </Array>
          </mxGeometry>
        </mxCell>
        <mxCell id="-TJM4q__RIzKJfzwJ7_V-84" value="" style="endArrow=classic;html=1;rounded=0;entryX=0.97;entryY=0.365;entryDx=0;entryDy=0;entryPerimeter=0;" edge="1" parent="1">
          <mxGeometry width="50" height="50" relative="1" as="geometry">
            <mxPoint x="600" y="480" as="sourcePoint" />
            <mxPoint x="558.8" y="479.6" as="targetPoint" />
          </mxGeometry>
        </mxCell>
        <mxCell id="-TJM4q__RIzKJfzwJ7_V-85" value="" style="endArrow=classic;html=1;rounded=0;" edge="1" parent="1" target="-TJM4q__RIzKJfzwJ7_V-46">
          <mxGeometry width="50" height="50" relative="1" as="geometry">
            <mxPoint x="420" y="690" as="sourcePoint" />
            <mxPoint x="600" y="520" as="targetPoint" />
          </mxGeometry>
        </mxCell>
        <mxCell id="-TJM4q__RIzKJfzwJ7_V-86" value="" style="endArrow=classic;html=1;rounded=0;" edge="1" parent="1">
          <mxGeometry width="50" height="50" relative="1" as="geometry">
            <mxPoint x="545.8" y="690" as="sourcePoint" />
            <mxPoint x="545.8" y="650" as="targetPoint" />
          </mxGeometry>
        </mxCell>
        <mxCell id="-TJM4q__RIzKJfzwJ7_V-89" value="" style="endArrow=none;html=1;rounded=0;exitX=0.68;exitY=0.51;exitDx=0;exitDy=0;exitPerimeter=0;entryX=0.33;entryY=0.53;entryDx=0;entryDy=0;entryPerimeter=0;" edge="1" parent="1" source="-TJM4q__RIzKJfzwJ7_V-90" target="-TJM4q__RIzKJfzwJ7_V-91">
          <mxGeometry width="50" height="50" relative="1" as="geometry">
            <mxPoint x="450" y="610" as="sourcePoint" />
            <mxPoint x="518" y="610" as="targetPoint" />
          </mxGeometry>
        </mxCell>
        <mxCell id="-TJM4q__RIzKJfzwJ7_V-90" value="" style="shape=waypoint;sketch=0;fillStyle=solid;size=6;pointerEvents=1;points=[];fillColor=none;resizable=0;rotatable=0;perimeter=centerPerimeter;snapToPoint=1;" vertex="1" parent="1">
          <mxGeometry x="434" y="600" width="20" height="20" as="geometry" />
        </mxCell>
        <mxCell id="-TJM4q__RIzKJfzwJ7_V-91" value="" style="shape=waypoint;sketch=0;fillStyle=solid;size=6;pointerEvents=1;points=[];fillColor=none;resizable=0;rotatable=0;perimeter=centerPerimeter;snapToPoint=1;" vertex="1" parent="1">
          <mxGeometry x="505" y="600" width="20" height="20" as="geometry" />
        </mxCell>
        <mxCell id="-TJM4q__RIzKJfzwJ7_V-93" style="edgeStyle=orthogonalEdgeStyle;rounded=0;orthogonalLoop=1;jettySize=auto;html=1;entryX=1;entryY=0.75;entryDx=0;entryDy=0;" edge="1" parent="1" source="-TJM4q__RIzKJfzwJ7_V-92" target="-TJM4q__RIzKJfzwJ7_V-1">
          <mxGeometry relative="1" as="geometry" />
        </mxCell>
        <mxCell id="-TJM4q__RIzKJfzwJ7_V-92" value="" style="shape=waypoint;sketch=0;fillStyle=solid;size=6;pointerEvents=1;points=[];fillColor=none;resizable=0;rotatable=0;perimeter=centerPerimeter;snapToPoint=1;" vertex="1" parent="1">
          <mxGeometry x="505" y="480" width="20" height="20" as="geometry" />
        </mxCell>
        <mxCell id="-TJM4q__RIzKJfzwJ7_V-94" value="" style="endArrow=none;html=1;rounded=0;" edge="1" parent="1">
          <mxGeometry width="50" height="50" relative="1" as="geometry">
            <mxPoint x="490" y="610" as="sourcePoint" />
            <mxPoint x="490" y="490" as="targetPoint" />
          </mxGeometry>
        </mxCell>
        <mxCell id="-TJM4q__RIzKJfzwJ7_V-96" style="edgeStyle=orthogonalEdgeStyle;rounded=0;orthogonalLoop=1;jettySize=auto;html=1;entryX=0.186;entryY=0.97;entryDx=0;entryDy=0;entryPerimeter=0;" edge="1" parent="1" source="-TJM4q__RIzKJfzwJ7_V-95" target="-TJM4q__RIzKJfzwJ7_V-38">
          <mxGeometry relative="1" as="geometry" />
        </mxCell>
        <mxCell id="-TJM4q__RIzKJfzwJ7_V-95" value="" style="shape=waypoint;sketch=0;fillStyle=solid;size=6;pointerEvents=1;points=[];fillColor=none;resizable=0;rotatable=0;perimeter=centerPerimeter;snapToPoint=1;" vertex="1" parent="1">
          <mxGeometry x="410" y="446" width="20" height="20" as="geometry" />
        </mxCell>
        <mxCell id="-TJM4q__RIzKJfzwJ7_V-98" value="" style="ellipse;whiteSpace=wrap;html=1;aspect=fixed;fontSize=11;" vertex="1" parent="1">
          <mxGeometry x="543" y="677" width="6" height="6" as="geometry" />
        </mxCell>
        <mxCell id="-TJM4q__RIzKJfzwJ7_V-100" value="" style="ellipse;whiteSpace=wrap;html=1;aspect=fixed;fontSize=11;" vertex="1" parent="1">
          <mxGeometry x="417" y="677" width="6" height="6" as="geometry" />
        </mxCell>
        <mxCell id="-TJM4q__RIzKJfzwJ7_V-102" value="" style="ellipse;whiteSpace=wrap;html=1;aspect=fixed;fontSize=11;" vertex="1" parent="1">
          <mxGeometry x="487" y="597" width="6" height="6" as="geometry" />
        </mxCell>
        <mxCell id="-TJM4q__RIzKJfzwJ7_V-103" value="" style="ellipse;whiteSpace=wrap;html=1;aspect=fixed;fontSize=11;" vertex="1" parent="1">
          <mxGeometry x="477" y="487" width="6" height="6" as="geometry" />
        </mxCell>
        <mxCell id="-TJM4q__RIzKJfzwJ7_V-107" value="❷" style="text;spacing=0;spacingTop=-2;align=center;verticalAlign=middle;fontSize=13;fontColor=default;labelBackgroundColor=default;" vertex="1" parent="1">
          <mxGeometry x="461" y="470" width="20" height="20" as="geometry" />
        </mxCell>
        <mxCell id="-TJM4q__RIzKJfzwJ7_V-110" value="❶" style="text;labelBackgroundColor=default;align=center;verticalAlign=middle;fontSize=13;" vertex="1" parent="1">
          <mxGeometry x="330" y="469" width="20" height="20" as="geometry" />
        </mxCell>
        <mxCell id="-TJM4q__RIzKJfzwJ7_V-111" value="❷" style="text;spacing=0;spacingTop=-2;align=center;verticalAlign=middle;fontSize=13;fontColor=default;labelBackgroundColor=default;" vertex="1" parent="1">
          <mxGeometry x="470" y="540" width="20" height="20" as="geometry" />
        </mxCell>
        <mxCell id="-TJM4q__RIzKJfzwJ7_V-113" value="❸❹❺❻❼❽" style="text;align=center;verticalAlign=middle;spacing=0;spacingTop=-2;fontSize=13;" vertex="1" parent="1">
          <mxGeometry x="770" y="416" width="60" height="30" as="geometry" />
        </mxCell>
        <mxCell id="-TJM4q__RIzKJfzwJ7_V-114" value="❸" style="text;align=center;verticalAlign=middle;spacing=0;spacingTop=-2;fontSize=13;labelBackgroundColor=default;" vertex="1" parent="1">
          <mxGeometry x="575" y="570" width="20" height="20" as="geometry" />
        </mxCell>
        <mxCell id="-TJM4q__RIzKJfzwJ7_V-115" value="❸" style="text;align=center;verticalAlign=middle;spacing=0;spacingTop=-2;fontSize=13;labelBackgroundColor=default;" vertex="1" parent="1">
          <mxGeometry x="467" y="670" width="20" height="20" as="geometry" />
        </mxCell>
        <mxCell id="-TJM4q__RIzKJfzwJ7_V-117" value="❸" style="text;align=center;verticalAlign=middle;spacing=0;spacingTop=-2;fontSize=13;labelBackgroundColor=default;" vertex="1" parent="1">
          <mxGeometry x="325" y="670" width="20" height="20" as="geometry" />
        </mxCell>
        <mxCell id="-TJM4q__RIzKJfzwJ7_V-118" value="❹" style="text;align=center;verticalAlign=middle;spacing=0;spacingTop=-2;fontSize=13;labelBackgroundColor=default;" vertex="1" parent="1">
          <mxGeometry x="350" y="680" width="20" height="20" as="geometry" />
        </mxCell>
        <mxCell id="-TJM4q__RIzKJfzwJ7_V-119" value="❹" style="text;align=center;verticalAlign=middle;spacing=0;spacingTop=-2;fontSize=13;labelBackgroundColor=default;" vertex="1" parent="1">
          <mxGeometry x="500" y="680" width="20" height="20" as="geometry" />
        </mxCell>
        <mxCell id="-TJM4q__RIzKJfzwJ7_V-120" value="❹" style="text;align=center;verticalAlign=middle;spacing=0;spacingTop=-2;fontSize=13;labelBackgroundColor=default;" vertex="1" parent="1">
          <mxGeometry x="590" y="540" width="20" height="20" as="geometry" />
        </mxCell>
        <mxCell id="-TJM4q__RIzKJfzwJ7_V-121" value="❺" style="text;align=center;verticalAlign=middle;spacing=0;spacingTop=-2;fontSize=13;labelBorderColor=none;labelBackgroundColor=default;" vertex="1" parent="1">
          <mxGeometry x="480" y="560" width="20" height="20" as="geometry" />
        </mxCell>
        <mxCell id="-TJM4q__RIzKJfzwJ7_V-122" value="❺" style="text;align=center;verticalAlign=middle;spacing=0;spacingTop=-2;fontSize=13;labelBorderColor=none;labelBackgroundColor=default;" vertex="1" parent="1">
          <mxGeometry x="446" y="480" width="20" height="20" as="geometry" />
        </mxCell>
        <mxCell id="-TJM4q__RIzKJfzwJ7_V-123" value="❻" style="text;align=center;verticalAlign=middle;spacing=0;spacingTop=-2;fontSize=13;labelBackgroundColor=default;" vertex="1" parent="1">
          <mxGeometry x="410" y="433" width="20" height="20" as="geometry" />
        </mxCell>
        <mxCell id="-TJM4q__RIzKJfzwJ7_V-125" value="❷" style="text;spacing=0;spacingTop=-2;align=center;verticalAlign=middle;fontSize=13;fontColor=default;labelBackgroundColor=default;" vertex="1" parent="1">
          <mxGeometry x="690" y="500" width="20" height="20" as="geometry" />
        </mxCell>
        <mxCell id="-TJM4q__RIzKJfzwJ7_V-127" value="1. Contract&lt;br&gt;execution&lt;br&gt;request" style="text;html=1;align=center;verticalAlign=middle;resizable=0;points=[];autosize=1;strokeColor=none;fillColor=none;fontColor=#808080;" vertex="1" parent="1">
          <mxGeometry x="295" y="480" width="80" height="60" as="geometry" />
        </mxCell>
        <mxCell id="-TJM4q__RIzKJfzwJ7_V-128" value="3. Https request&lt;br&gt;4. Https response" style="text;html=1;align=left;verticalAlign=middle;resizable=0;points=[];autosize=1;strokeColor=none;fillColor=none;fontColor=#808080;" vertex="1" parent="1">
          <mxGeometry x="290" y="637" width="120" height="40" as="geometry" />
        </mxCell>
        <mxCell id="-TJM4q__RIzKJfzwJ7_V-129" value="6. Contract&lt;br&gt;execution" style="text;html=1;align=center;verticalAlign=middle;resizable=0;points=[];autosize=1;strokeColor=none;fillColor=none;fontColor=#808080;" vertex="1" parent="1">
          <mxGeometry x="335" y="423" width="80" height="40" as="geometry" />
        </mxCell>
        <mxCell id="-TJM4q__RIzKJfzwJ7_V-130" value="2. Data&lt;br&gt;request&lt;br&gt;setup" style="text;html=1;align=center;verticalAlign=middle;resizable=0;points=[];autosize=1;strokeColor=none;fillColor=none;fontColor=#808080;" vertex="1" parent="1">
          <mxGeometry x="420" y="524" width="60" height="60" as="geometry" />
        </mxCell>
        <mxCell id="-TJM4q__RIzKJfzwJ7_V-131" value="5. Data sync" style="text;html=1;align=center;verticalAlign=middle;resizable=0;points=[];autosize=1;strokeColor=none;fillColor=none;fontColor=#808080;" vertex="1" parent="1">
          <mxGeometry x="486" y="535" width="90" height="30" as="geometry" />
        </mxCell>
      </root>
    </mxGraphModel>
  </diagram>
</mxfile>
